solid OpenSCAD_Model
  facet normal 0.998027 0.0627927 0
    outer loop
      vertex 3.25 0 13.75
      vertex 3.22437 0.407332 2
      vertex 3.22437 0.407332 13.75
    endloop
  endfacet
  facet normal 0.998027 0.0627927 0
    outer loop
      vertex 3.22437 0.407332 2
      vertex 3.25 0 13.75
      vertex 3.25 0 2
    endloop
  endfacet
  facet normal -0.998027 0.0627927 0
    outer loop
      vertex -3.25 0 0
      vertex -3.22437 0.407332 13.75
      vertex -3.22437 0.407332 0
    endloop
  endfacet
  facet normal -0.998027 0.0627927 0
    outer loop
      vertex -3.22437 0.407332 13.75
      vertex -3.25 0 0
      vertex -3.25 0 13.75
    endloop
  endfacet
  facet normal 0 1 -0
    outer loop
      vertex 0.204069 3.24359 0
      vertex -0.204069 3.24359 13.75
      vertex 0.204069 3.24359 13.75
    endloop
  endfacet
  facet normal 0 1 0
    outer loop
      vertex -0.204069 3.24359 13.75
      vertex 0.204069 3.24359 0
      vertex -0.204069 3.24359 0
    endloop
  endfacet
  facet normal 0 -1 0
    outer loop
      vertex -0.204069 -3.24359 0
      vertex 0.204069 -3.24359 13.75
      vertex -0.204069 -3.24359 13.75
    endloop
  endfacet
  facet normal 0 -1 -0
    outer loop
      vertex 0.204069 -3.24359 13.75
      vertex -0.204069 -3.24359 0
      vertex 0.204069 -3.24359 0
    endloop
  endfacet
  facet normal 0.684548 0.728968 0
    outer loop
      vertex 2.25 2.33666 2
      vertex 2.36915 2.22478 13.75
      vertex 2.36915 2.22478 2
    endloop
  endfacet
  facet normal 0.684548 0.728968 -5.4024e-009
    outer loop
      vertex 2.36915 2.22478 13.75
      vertex 2.25 2.33666 2
      vertex 2.07163 2.50417 13.75
    endloop
  endfacet
  facet normal 0.684548 0.728968 0
    outer loop
      vertex 2.07163 2.50417 0
      vertex 2.25 2.33666 2
      vertex 2.25 2.33666 0
    endloop
  endfacet
  facet normal 0.684548 0.728968 0
    outer loop
      vertex 2.25 2.33666 2
      vertex 2.07163 2.50417 0
      vertex 2.07163 2.50417 13.75
    endloop
  endfacet
  facet normal -0.684548 0.728968 0
    outer loop
      vertex -2.07163 2.50417 0
      vertex -2.36915 2.22478 13.75
      vertex -2.07163 2.50417 13.75
    endloop
  endfacet
  facet normal -0.684548 0.728968 0
    outer loop
      vertex -2.36915 2.22478 13.75
      vertex -2.07163 2.50417 0
      vertex -2.36915 2.22478 0
    endloop
  endfacet
  facet normal -0.368124 0.929777 0
    outer loop
      vertex -1.0043 3.09093 0
      vertex -1.38378 2.94069 13.75
      vertex -1.0043 3.09093 13.75
    endloop
  endfacet
  facet normal -0.368124 0.929777 0
    outer loop
      vertex -1.38378 2.94069 13.75
      vertex -1.0043 3.09093 0
      vertex -1.38378 2.94069 0
    endloop
  endfacet
  facet normal 0.904826 0.425781 0
    outer loop
      vertex 3.02177 1.1964 13.75
      vertex 2.848 1.5657 2
      vertex 2.848 1.5657 13.75
    endloop
  endfacet
  facet normal 0.904826 0.425781 0
    outer loop
      vertex 2.848 1.5657 2
      vertex 3.02177 1.1964 13.75
      vertex 3.02177 1.1964 2
    endloop
  endfacet
  facet normal 0.844329 0.535826 0
    outer loop
      vertex 2.848 1.5657 13.75
      vertex 2.6293 1.9103 2
      vertex 2.6293 1.9103 13.75
    endloop
  endfacet
  facet normal 0.844329 0.535826 0
    outer loop
      vertex 2.6293 1.9103 2
      vertex 2.848 1.5657 13.75
      vertex 2.848 1.5657 2
    endloop
  endfacet
  facet normal 0.368124 0.929777 -0
    outer loop
      vertex 1.38378 2.94069 0
      vertex 1.0043 3.09093 13.75
      vertex 1.38378 2.94069 13.75
    endloop
  endfacet
  facet normal 0.368124 0.929777 0
    outer loop
      vertex 1.0043 3.09093 13.75
      vertex 1.38378 2.94069 0
      vertex 1.0043 3.09093 0
    endloop
  endfacet
  facet normal 0.248691 0.968583 -0
    outer loop
      vertex 1.0043 3.09093 0
      vertex 0.608989 3.19243 13.75
      vertex 1.0043 3.09093 13.75
    endloop
  endfacet
  facet normal 0.248691 0.968583 0
    outer loop
      vertex 0.608989 3.19243 13.75
      vertex 1.0043 3.09093 0
      vertex 0.608989 3.19243 0
    endloop
  endfacet
  facet normal 0.587786 0.809017 -0
    outer loop
      vertex 2.07163 2.50417 0
      vertex 1.74144 2.74407 13.75
      vertex 2.07163 2.50417 13.75
    endloop
  endfacet
  facet normal 0.587786 0.809017 0
    outer loop
      vertex 1.74144 2.74407 13.75
      vertex 2.07163 2.50417 0
      vertex 1.74144 2.74407 0
    endloop
  endfacet
  facet normal -0.844329 0.535826 0
    outer loop
      vertex -2.848 1.5657 0
      vertex -2.6293 1.9103 13.75
      vertex -2.6293 1.9103 0
    endloop
  endfacet
  facet normal -0.844329 0.535826 0
    outer loop
      vertex -2.6293 1.9103 13.75
      vertex -2.848 1.5657 0
      vertex -2.848 1.5657 13.75
    endloop
  endfacet
  facet normal -0.770513 0.637425 0
    outer loop
      vertex -2.6293 1.9103 0
      vertex -2.36915 2.22478 13.75
      vertex -2.36915 2.22478 0
    endloop
  endfacet
  facet normal -0.770513 0.637425 0
    outer loop
      vertex -2.36915 2.22478 13.75
      vertex -2.6293 1.9103 0
      vertex -2.6293 1.9103 13.75
    endloop
  endfacet
  facet normal -0.951057 0.309017 0
    outer loop
      vertex -3.14789 0.808242 0
      vertex -3.02177 1.1964 13.75
      vertex -3.02177 1.1964 0
    endloop
  endfacet
  facet normal -0.951057 0.309017 0
    outer loop
      vertex -3.02177 1.1964 13.75
      vertex -3.14789 0.808242 0
      vertex -3.14789 0.808242 13.75
    endloop
  endfacet
  facet normal -0.481753 0.876307 0
    outer loop
      vertex -1.38378 2.94069 0
      vertex -1.74144 2.74407 13.75
      vertex -1.38378 2.94069 13.75
    endloop
  endfacet
  facet normal -0.481753 0.876307 0
    outer loop
      vertex -1.74144 2.74407 13.75
      vertex -1.38378 2.94069 0
      vertex -1.74144 2.74407 0
    endloop
  endfacet
  facet normal -0.125333 0.992115 0
    outer loop
      vertex -0.204069 3.24359 0
      vertex -0.608989 3.19243 13.75
      vertex -0.204069 3.24359 13.75
    endloop
  endfacet
  facet normal -0.125333 0.992115 0
    outer loop
      vertex -0.608989 3.19243 13.75
      vertex -0.204069 3.24359 0
      vertex -0.608989 3.19243 0
    endloop
  endfacet
  facet normal 0.125333 -0.992115 0
    outer loop
      vertex 0.204069 -3.24359 0
      vertex 0.608989 -3.19243 13.75
      vertex 0.204069 -3.24359 13.75
    endloop
  endfacet
  facet normal 0.125333 -0.992115 0
    outer loop
      vertex 0.608989 -3.19243 13.75
      vertex 0.204069 -3.24359 0
      vertex 0.608989 -3.19243 0
    endloop
  endfacet
  facet normal 0.951057 0.309017 0
    outer loop
      vertex 3.14789 0.808242 13.75
      vertex 3.02177 1.1964 2
      vertex 3.02177 1.1964 13.75
    endloop
  endfacet
  facet normal 0.951057 0.309017 0
    outer loop
      vertex 3.02177 1.1964 2
      vertex 3.14789 0.808242 13.75
      vertex 3.14789 0.808242 2
    endloop
  endfacet
  facet normal 0.982287 0.18738 0
    outer loop
      vertex 3.22437 0.407332 13.75
      vertex 3.14789 0.808242 2
      vertex 3.14789 0.808242 13.75
    endloop
  endfacet
  facet normal 0.982287 0.18738 0
    outer loop
      vertex 3.14789 0.808242 2
      vertex 3.22437 0.407332 13.75
      vertex 3.22437 0.407332 2
    endloop
  endfacet
  facet normal 0.770513 0.637425 0
    outer loop
      vertex 2.6293 1.9103 13.75
      vertex 2.36915 2.22478 2
      vertex 2.36915 2.22478 13.75
    endloop
  endfacet
  facet normal 0.770513 0.637425 0
    outer loop
      vertex 2.36915 2.22478 2
      vertex 2.6293 1.9103 13.75
      vertex 2.6293 1.9103 2
    endloop
  endfacet
  facet normal 0.125333 0.992115 -0
    outer loop
      vertex 0.608989 3.19243 0
      vertex 0.204069 3.24359 13.75
      vertex 0.608989 3.19243 13.75
    endloop
  endfacet
  facet normal 0.125333 0.992115 0
    outer loop
      vertex 0.204069 3.24359 13.75
      vertex 0.608989 3.19243 0
      vertex 0.204069 3.24359 0
    endloop
  endfacet
  facet normal -0.904826 0.425781 0
    outer loop
      vertex -3.02177 1.1964 0
      vertex -2.848 1.5657 13.75
      vertex -2.848 1.5657 0
    endloop
  endfacet
  facet normal -0.904826 0.425781 0
    outer loop
      vertex -2.848 1.5657 13.75
      vertex -3.02177 1.1964 0
      vertex -3.02177 1.1964 13.75
    endloop
  endfacet
  facet normal -0.982287 0.18738 0
    outer loop
      vertex -3.22437 0.407332 0
      vertex -3.14789 0.808242 13.75
      vertex -3.14789 0.808242 0
    endloop
  endfacet
  facet normal -0.982287 0.18738 0
    outer loop
      vertex -3.14789 0.808242 13.75
      vertex -3.22437 0.407332 0
      vertex -3.22437 0.407332 13.75
    endloop
  endfacet
  facet normal 0 0 1
    outer loop
      vertex 2.25 0 13.75
      vertex 3.25 0 13.75
      vertex 3.22437 0.407332 13.75
    endloop
  endfacet
  facet normal 0 0 1
    outer loop
      vertex 2.23226 0.282 13.75
      vertex 3.22437 0.407332 13.75
      vertex 3.14789 0.808242 13.75
    endloop
  endfacet
  facet normal 0 0 1
    outer loop
      vertex 3.25 0 13.75
      vertex 2.25 0 13.75
      vertex 3.22437 -0.407332 13.75
    endloop
  endfacet
  facet normal 0 0 1
    outer loop
      vertex 2.17931 0.559552 13.75
      vertex 3.14789 0.808242 13.75
      vertex 3.02177 1.1964 13.75
    endloop
  endfacet
  facet normal -0 0 1
    outer loop
      vertex 2.23226 -0.282 13.75
      vertex 3.22437 -0.407332 13.75
      vertex 2.25 0 13.75
    endloop
  endfacet
  facet normal 0 0 1
    outer loop
      vertex 2.092 0.828279 13.75
      vertex 3.02177 1.1964 13.75
      vertex 2.848 1.5657 13.75
    endloop
  endfacet
  facet normal 0 0 1
    outer loop
      vertex 3.22437 -0.407332 13.75
      vertex 2.23226 -0.282 13.75
      vertex 3.14789 -0.808242 13.75
    endloop
  endfacet
  facet normal 0 0 1
    outer loop
      vertex 1.97169 1.08395 13.75
      vertex 2.848 1.5657 13.75
      vertex 2.6293 1.9103 13.75
    endloop
  endfacet
  facet normal -0 0 1
    outer loop
      vertex 2.17931 -0.559552 13.75
      vertex 3.14789 -0.808242 13.75
      vertex 2.23226 -0.282 13.75
    endloop
  endfacet
  facet normal 0 0 1
    outer loop
      vertex 1.82029 1.32252 13.75
      vertex 2.6293 1.9103 13.75
      vertex 2.36915 2.22478 13.75
    endloop
  endfacet
  facet normal 0 0 1
    outer loop
      vertex 3.14789 -0.808242 13.75
      vertex 2.17931 -0.559552 13.75
      vertex 3.02177 -1.1964 13.75
    endloop
  endfacet
  facet normal -0 0 1
    outer loop
      vertex 2.092 -0.828279 13.75
      vertex 3.02177 -1.1964 13.75
      vertex 2.17931 -0.559552 13.75
    endloop
  endfacet
  facet normal 0 0 1
    outer loop
      vertex 3.22437 0.407332 13.75
      vertex 2.23226 0.282 13.75
      vertex 2.25 0 13.75
    endloop
  endfacet
  facet normal 0 0 1
    outer loop
      vertex 3.14789 0.808242 13.75
      vertex 2.17931 0.559552 13.75
      vertex 2.23226 0.282 13.75
    endloop
  endfacet
  facet normal 0 0 1
    outer loop
      vertex 3.02177 1.1964 13.75
      vertex 2.092 0.828279 13.75
      vertex 2.17931 0.559552 13.75
    endloop
  endfacet
  facet normal 0 0 1
    outer loop
      vertex 1.64018 1.54023 13.75
      vertex 2.36915 2.22478 13.75
      vertex 2.07163 2.50417 13.75
    endloop
  endfacet
  facet normal 0 0 1
    outer loop
      vertex 2.848 1.5657 13.75
      vertex 1.97169 1.08395 13.75
      vertex 2.092 0.828279 13.75
    endloop
  endfacet
  facet normal 0 0 1
    outer loop
      vertex 2.6293 1.9103 13.75
      vertex 1.82029 1.32252 13.75
      vertex 1.97169 1.08395 13.75
    endloop
  endfacet
  facet normal 0 0 1
    outer loop
      vertex 1.4342 1.73365 13.75
      vertex 2.07163 2.50417 13.75
      vertex 1.74144 2.74407 13.75
    endloop
  endfacet
  facet normal 0 0 1
    outer loop
      vertex 2.36915 2.22478 13.75
      vertex 1.64018 1.54023 13.75
      vertex 1.82029 1.32252 13.75
    endloop
  endfacet
  facet normal 0 0 1
    outer loop
      vertex 2.07163 2.50417 13.75
      vertex 1.4342 1.73365 13.75
      vertex 1.64018 1.54023 13.75
    endloop
  endfacet
  facet normal 0 0 1
    outer loop
      vertex 1.20561 1.89974 13.75
      vertex 1.74144 2.74407 13.75
      vertex 1.38378 2.94069 13.75
    endloop
  endfacet
  facet normal 0 0 1
    outer loop
      vertex 1.74144 2.74407 13.75
      vertex 1.20561 1.89974 13.75
      vertex 1.4342 1.73365 13.75
    endloop
  endfacet
  facet normal 0 0 1
    outer loop
      vertex 0.958003 2.03586 13.75
      vertex 1.38378 2.94069 13.75
      vertex 1.0043 3.09093 13.75
    endloop
  endfacet
  facet normal 0 0 1
    outer loop
      vertex 1.38378 2.94069 13.75
      vertex 0.958003 2.03586 13.75
      vertex 1.20561 1.89974 13.75
    endloop
  endfacet
  facet normal 0 0 1
    outer loop
      vertex 1.0043 3.09093 13.75
      vertex 0.695288 2.13988 13.75
      vertex 0.958003 2.03586 13.75
    endloop
  endfacet
  facet normal 0 0 1
    outer loop
      vertex 0.608989 3.19243 13.75
      vertex 0.695288 2.13988 13.75
      vertex 1.0043 3.09093 13.75
    endloop
  endfacet
  facet normal 0 0 1
    outer loop
      vertex 0.608989 3.19243 13.75
      vertex 0.421607 2.21015 13.75
      vertex 0.695288 2.13988 13.75
    endloop
  endfacet
  facet normal 0 0 1
    outer loop
      vertex 0.204069 3.24359 13.75
      vertex 0.421607 2.21015 13.75
      vertex 0.608989 3.19243 13.75
    endloop
  endfacet
  facet normal 0 0 1
    outer loop
      vertex 0.204069 3.24359 13.75
      vertex 0.141278 2.24556 13.75
      vertex 0.421607 2.21015 13.75
    endloop
  endfacet
  facet normal 0 0 1
    outer loop
      vertex 0.204069 3.24359 13.75
      vertex -0.141278 2.24556 13.75
      vertex 0.141278 2.24556 13.75
    endloop
  endfacet
  facet normal -0 0 1
    outer loop
      vertex -0.204069 3.24359 13.75
      vertex -0.141278 2.24556 13.75
      vertex 0.204069 3.24359 13.75
    endloop
  endfacet
  facet normal 0 0 1
    outer loop
      vertex -0.204069 3.24359 13.75
      vertex -0.421607 2.21015 13.75
      vertex -0.141278 2.24556 13.75
    endloop
  endfacet
  facet normal -0 0 1
    outer loop
      vertex -0.608989 3.19243 13.75
      vertex -0.421607 2.21015 13.75
      vertex -0.204069 3.24359 13.75
    endloop
  endfacet
  facet normal 0 0 1
    outer loop
      vertex -0.608989 3.19243 13.75
      vertex -0.695288 2.13988 13.75
      vertex -0.421607 2.21015 13.75
    endloop
  endfacet
  facet normal -0 0 1
    outer loop
      vertex -1.0043 3.09093 13.75
      vertex -0.695288 2.13988 13.75
      vertex -0.608989 3.19243 13.75
    endloop
  endfacet
  facet normal 0 0 1
    outer loop
      vertex -0.695288 2.13988 13.75
      vertex -1.0043 3.09093 13.75
      vertex -0.958003 2.03586 13.75
    endloop
  endfacet
  facet normal -0 0 1
    outer loop
      vertex -1.38378 2.94069 13.75
      vertex -0.958003 2.03586 13.75
      vertex -1.0043 3.09093 13.75
    endloop
  endfacet
  facet normal 0 0 1
    outer loop
      vertex -0.958003 2.03586 13.75
      vertex -1.38378 2.94069 13.75
      vertex -1.20561 1.89974 13.75
    endloop
  endfacet
  facet normal -0 0 1
    outer loop
      vertex -1.74144 2.74407 13.75
      vertex -1.20561 1.89974 13.75
      vertex -1.38378 2.94069 13.75
    endloop
  endfacet
  facet normal 0 0 1
    outer loop
      vertex -1.20561 1.89974 13.75
      vertex -1.74144 2.74407 13.75
      vertex -1.4342 1.73365 13.75
    endloop
  endfacet
  facet normal -0 0 1
    outer loop
      vertex -2.07163 2.50417 13.75
      vertex -1.4342 1.73365 13.75
      vertex -1.74144 2.74407 13.75
    endloop
  endfacet
  facet normal 0 0 1
    outer loop
      vertex -1.4342 1.73365 13.75
      vertex -2.07163 2.50417 13.75
      vertex -1.64018 1.54023 13.75
    endloop
  endfacet
  facet normal -0 0 1
    outer loop
      vertex -2.36915 2.22478 13.75
      vertex -1.64018 1.54023 13.75
      vertex -2.07163 2.50417 13.75
    endloop
  endfacet
  facet normal 0 0 1
    outer loop
      vertex -1.64018 1.54023 13.75
      vertex -2.36915 2.22478 13.75
      vertex -1.82029 1.32252 13.75
    endloop
  endfacet
  facet normal -0 0 1
    outer loop
      vertex -2.6293 1.9103 13.75
      vertex -1.82029 1.32252 13.75
      vertex -2.36915 2.22478 13.75
    endloop
  endfacet
  facet normal 0 0 1
    outer loop
      vertex -1.82029 1.32252 13.75
      vertex -2.6293 1.9103 13.75
      vertex -1.97169 1.08395 13.75
    endloop
  endfacet
  facet normal -0 0 1
    outer loop
      vertex -2.848 1.5657 13.75
      vertex -1.97169 1.08395 13.75
      vertex -2.6293 1.9103 13.75
    endloop
  endfacet
  facet normal -0 0 1
    outer loop
      vertex -3.02177 1.1964 13.75
      vertex -2.092 0.828279 13.75
      vertex -2.848 1.5657 13.75
    endloop
  endfacet
  facet normal 0 0 1
    outer loop
      vertex -1.97169 1.08395 13.75
      vertex -2.848 1.5657 13.75
      vertex -2.092 0.828279 13.75
    endloop
  endfacet
  facet normal 0 0 1
    outer loop
      vertex 3.02177 -1.1964 13.75
      vertex 2.092 -0.828279 13.75
      vertex 2.848 -1.5657 13.75
    endloop
  endfacet
  facet normal -0 0 1
    outer loop
      vertex 1.97169 -1.08395 13.75
      vertex 2.848 -1.5657 13.75
      vertex 2.092 -0.828279 13.75
    endloop
  endfacet
  facet normal 0 0 1
    outer loop
      vertex 2.848 -1.5657 13.75
      vertex 1.97169 -1.08395 13.75
      vertex 2.6293 -1.9103 13.75
    endloop
  endfacet
  facet normal -0 0 1
    outer loop
      vertex 1.82029 -1.32252 13.75
      vertex 2.6293 -1.9103 13.75
      vertex 1.97169 -1.08395 13.75
    endloop
  endfacet
  facet normal 0 0 1
    outer loop
      vertex 2.6293 -1.9103 13.75
      vertex 1.82029 -1.32252 13.75
      vertex 2.36915 -2.22478 13.75
    endloop
  endfacet
  facet normal -0 0 1
    outer loop
      vertex 1.64018 -1.54023 13.75
      vertex 2.36915 -2.22478 13.75
      vertex 1.82029 -1.32252 13.75
    endloop
  endfacet
  facet normal 0 0 1
    outer loop
      vertex 2.36915 -2.22478 13.75
      vertex 1.64018 -1.54023 13.75
      vertex 2.07163 -2.50417 13.75
    endloop
  endfacet
  facet normal -0 0 1
    outer loop
      vertex 1.4342 -1.73365 13.75
      vertex 2.07163 -2.50417 13.75
      vertex 1.64018 -1.54023 13.75
    endloop
  endfacet
  facet normal 0 0 1
    outer loop
      vertex 2.07163 -2.50417 13.75
      vertex 1.4342 -1.73365 13.75
      vertex 1.74144 -2.74407 13.75
    endloop
  endfacet
  facet normal -0 0 1
    outer loop
      vertex 1.20561 -1.89974 13.75
      vertex 1.74144 -2.74407 13.75
      vertex 1.4342 -1.73365 13.75
    endloop
  endfacet
  facet normal 0 0 1
    outer loop
      vertex 1.74144 -2.74407 13.75
      vertex 1.20561 -1.89974 13.75
      vertex 1.38378 -2.94069 13.75
    endloop
  endfacet
  facet normal -0 0 1
    outer loop
      vertex 0.958003 -2.03586 13.75
      vertex 1.38378 -2.94069 13.75
      vertex 1.20561 -1.89974 13.75
    endloop
  endfacet
  facet normal 0 0 1
    outer loop
      vertex 1.38378 -2.94069 13.75
      vertex 0.958003 -2.03586 13.75
      vertex 1.0043 -3.09093 13.75
    endloop
  endfacet
  facet normal -0 0 1
    outer loop
      vertex 0.695288 -2.13988 13.75
      vertex 1.0043 -3.09093 13.75
      vertex 0.958003 -2.03586 13.75
    endloop
  endfacet
  facet normal 0 0 1
    outer loop
      vertex 0.695288 -2.13988 13.75
      vertex 0.608989 -3.19243 13.75
      vertex 1.0043 -3.09093 13.75
    endloop
  endfacet
  facet normal -0 0 1
    outer loop
      vertex 0.421607 -2.21015 13.75
      vertex 0.608989 -3.19243 13.75
      vertex 0.695288 -2.13988 13.75
    endloop
  endfacet
  facet normal 0 0 1
    outer loop
      vertex 0.421607 -2.21015 13.75
      vertex 0.204069 -3.24359 13.75
      vertex 0.608989 -3.19243 13.75
    endloop
  endfacet
  facet normal -0 0 1
    outer loop
      vertex 0.141278 -2.24556 13.75
      vertex 0.204069 -3.24359 13.75
      vertex 0.421607 -2.21015 13.75
    endloop
  endfacet
  facet normal -0 0 1
    outer loop
      vertex -0.141278 -2.24556 13.75
      vertex 0.204069 -3.24359 13.75
      vertex 0.141278 -2.24556 13.75
    endloop
  endfacet
  facet normal 0 0 1
    outer loop
      vertex -0.141278 -2.24556 13.75
      vertex -0.204069 -3.24359 13.75
      vertex 0.204069 -3.24359 13.75
    endloop
  endfacet
  facet normal 0 0 1
    outer loop
      vertex -0.421607 -2.21015 13.75
      vertex -0.204069 -3.24359 13.75
      vertex -0.141278 -2.24556 13.75
    endloop
  endfacet
  facet normal 0 0 1
    outer loop
      vertex -0.421607 -2.21015 13.75
      vertex -0.608989 -3.19243 13.75
      vertex -0.204069 -3.24359 13.75
    endloop
  endfacet
  facet normal 0 0 1
    outer loop
      vertex -0.695288 -2.13988 13.75
      vertex -0.608989 -3.19243 13.75
      vertex -0.421607 -2.21015 13.75
    endloop
  endfacet
  facet normal 0 0 1
    outer loop
      vertex -1.0043 -3.09093 13.75
      vertex -0.695288 -2.13988 13.75
      vertex -0.958003 -2.03586 13.75
    endloop
  endfacet
  facet normal 0 0 1
    outer loop
      vertex -0.695288 -2.13988 13.75
      vertex -1.0043 -3.09093 13.75
      vertex -0.608989 -3.19243 13.75
    endloop
  endfacet
  facet normal 0 0 1
    outer loop
      vertex -1.38378 -2.94069 13.75
      vertex -0.958003 -2.03586 13.75
      vertex -1.20561 -1.89974 13.75
    endloop
  endfacet
  facet normal 0 0 1
    outer loop
      vertex -0.958003 -2.03586 13.75
      vertex -1.38378 -2.94069 13.75
      vertex -1.0043 -3.09093 13.75
    endloop
  endfacet
  facet normal 0 0 1
    outer loop
      vertex -1.74144 -2.74407 13.75
      vertex -1.20561 -1.89974 13.75
      vertex -1.4342 -1.73365 13.75
    endloop
  endfacet
  facet normal 0 0 1
    outer loop
      vertex -2.07163 -2.50417 13.75
      vertex -1.4342 -1.73365 13.75
      vertex -1.64018 -1.54023 13.75
    endloop
  endfacet
  facet normal 0 0 1
    outer loop
      vertex -1.20561 -1.89974 13.75
      vertex -1.74144 -2.74407 13.75
      vertex -1.38378 -2.94069 13.75
    endloop
  endfacet
  facet normal 0 0 1
    outer loop
      vertex -2.36915 -2.22478 13.75
      vertex -1.64018 -1.54023 13.75
      vertex -1.82029 -1.32252 13.75
    endloop
  endfacet
  facet normal 0 0 1
    outer loop
      vertex -2.6293 -1.9103 13.75
      vertex -1.82029 -1.32252 13.75
      vertex -1.97169 -1.08395 13.75
    endloop
  endfacet
  facet normal 0 0 1
    outer loop
      vertex -1.4342 -1.73365 13.75
      vertex -2.07163 -2.50417 13.75
      vertex -1.74144 -2.74407 13.75
    endloop
  endfacet
  facet normal 0 0 1
    outer loop
      vertex -2.848 -1.5657 13.75
      vertex -1.97169 -1.08395 13.75
      vertex -2.092 -0.828279 13.75
    endloop
  endfacet
  facet normal 0 0 1
    outer loop
      vertex -3.02177 -1.1964 13.75
      vertex -2.092 -0.828279 13.75
      vertex -2.17931 -0.559552 13.75
    endloop
  endfacet
  facet normal 0 0 1
    outer loop
      vertex -3.14789 -0.808242 13.75
      vertex -2.17931 -0.559552 13.75
      vertex -2.23226 -0.282 13.75
    endloop
  endfacet
  facet normal 0 0 1
    outer loop
      vertex -1.64018 -1.54023 13.75
      vertex -2.36915 -2.22478 13.75
      vertex -2.07163 -2.50417 13.75
    endloop
  endfacet
  facet normal 0 0 1
    outer loop
      vertex -3.22437 -0.407332 13.75
      vertex -2.23226 -0.282 13.75
      vertex -2.25 0 13.75
    endloop
  endfacet
  facet normal 0 0 1
    outer loop
      vertex -2.092 0.828279 13.75
      vertex -3.02177 1.1964 13.75
      vertex -2.17931 0.559552 13.75
    endloop
  endfacet
  facet normal -0 0 1
    outer loop
      vertex -3.14789 0.808242 13.75
      vertex -2.17931 0.559552 13.75
      vertex -3.02177 1.1964 13.75
    endloop
  endfacet
  facet normal 0 0 1
    outer loop
      vertex -1.82029 -1.32252 13.75
      vertex -2.6293 -1.9103 13.75
      vertex -2.36915 -2.22478 13.75
    endloop
  endfacet
  facet normal 0 0 1
    outer loop
      vertex -2.17931 0.559552 13.75
      vertex -3.14789 0.808242 13.75
      vertex -2.23226 0.282 13.75
    endloop
  endfacet
  facet normal 0 0 1
    outer loop
      vertex -1.97169 -1.08395 13.75
      vertex -2.848 -1.5657 13.75
      vertex -2.6293 -1.9103 13.75
    endloop
  endfacet
  facet normal -0 0 1
    outer loop
      vertex -3.22437 0.407332 13.75
      vertex -2.23226 0.282 13.75
      vertex -3.14789 0.808242 13.75
    endloop
  endfacet
  facet normal 0 0 1
    outer loop
      vertex -2.092 -0.828279 13.75
      vertex -3.02177 -1.1964 13.75
      vertex -2.848 -1.5657 13.75
    endloop
  endfacet
  facet normal 0 0 1
    outer loop
      vertex -2.23226 0.282 13.75
      vertex -3.22437 0.407332 13.75
      vertex -2.25 0 13.75
    endloop
  endfacet
  facet normal 0 0 1
    outer loop
      vertex -2.17931 -0.559552 13.75
      vertex -3.14789 -0.808242 13.75
      vertex -3.02177 -1.1964 13.75
    endloop
  endfacet
  facet normal 0 0 1
    outer loop
      vertex -3.25 0 13.75
      vertex -2.25 0 13.75
      vertex -3.22437 0.407332 13.75
    endloop
  endfacet
  facet normal 0 0 1
    outer loop
      vertex -2.23226 -0.282 13.75
      vertex -3.22437 -0.407332 13.75
      vertex -3.14789 -0.808242 13.75
    endloop
  endfacet
  facet normal 0 0 1
    outer loop
      vertex -2.25 0 13.75
      vertex -3.25 0 13.75
      vertex -3.22437 -0.407332 13.75
    endloop
  endfacet
  facet normal -0.587786 0.809017 0
    outer loop
      vertex -1.74144 2.74407 0
      vertex -2.07163 2.50417 13.75
      vertex -1.74144 2.74407 13.75
    endloop
  endfacet
  facet normal -0.587786 0.809017 0
    outer loop
      vertex -2.07163 2.50417 13.75
      vertex -1.74144 2.74407 0
      vertex -2.07163 2.50417 0
    endloop
  endfacet
  facet normal 0.951057 -0.309017 0
    outer loop
      vertex 3.02177 -1.1964 13.75
      vertex 3.14789 -0.808242 2
      vertex 3.14789 -0.808242 13.75
    endloop
  endfacet
  facet normal 0.951057 -0.309017 0
    outer loop
      vertex 3.14789 -0.808242 2
      vertex 3.02177 -1.1964 13.75
      vertex 3.02177 -1.1964 2
    endloop
  endfacet
  facet normal 0.982287 -0.18738 0
    outer loop
      vertex 3.14789 -0.808242 13.75
      vertex 3.22437 -0.407332 2
      vertex 3.22437 -0.407332 13.75
    endloop
  endfacet
  facet normal 0.982287 -0.18738 0
    outer loop
      vertex 3.22437 -0.407332 2
      vertex 3.14789 -0.808242 13.75
      vertex 3.14789 -0.808242 2
    endloop
  endfacet
  facet normal -0.368124 -0.929777 0
    outer loop
      vertex -1.38378 -2.94069 0
      vertex -1.0043 -3.09093 13.75
      vertex -1.38378 -2.94069 13.75
    endloop
  endfacet
  facet normal -0.368124 -0.929777 -0
    outer loop
      vertex -1.0043 -3.09093 13.75
      vertex -1.38378 -2.94069 0
      vertex -1.0043 -3.09093 0
    endloop
  endfacet
  facet normal 0 0 -1
    outer loop
      vertex 6.45 8 0
      vertex 2.23226 0.282 0
      vertex 2.25 2.33666 0
    endloop
  endfacet
  facet normal 0 0 -1
    outer loop
      vertex 2.17931 0.559552 0
      vertex 2.25 2.33666 0
      vertex 2.23226 0.282 0
    endloop
  endfacet
  facet normal 0 0 -1
    outer loop
      vertex 2.092 0.828279 0
      vertex 2.25 2.33666 0
      vertex 2.17931 0.559552 0
    endloop
  endfacet
  facet normal 0 0 -1
    outer loop
      vertex 1.97169 1.08395 0
      vertex 2.25 2.33666 0
      vertex 2.092 0.828279 0
    endloop
  endfacet
  facet normal 0 0 -1
    outer loop
      vertex 1.82029 1.32252 0
      vertex 2.25 2.33666 0
      vertex 1.97169 1.08395 0
    endloop
  endfacet
  facet normal 0 0 -1
    outer loop
      vertex 1.64018 1.54023 0
      vertex 2.25 2.33666 0
      vertex 1.82029 1.32252 0
    endloop
  endfacet
  facet normal 0 0 -1
    outer loop
      vertex 1.4342 1.73365 0
      vertex 2.25 2.33666 0
      vertex 1.64018 1.54023 0
    endloop
  endfacet
  facet normal -0 0 -1
    outer loop
      vertex 2.25 2.33666 0
      vertex 1.4342 1.73365 0
      vertex 2.07163 2.50417 0
    endloop
  endfacet
  facet normal -0 0 -1
    outer loop
      vertex 2.07163 2.50417 0
      vertex 1.4342 1.73365 0
      vertex 1.74144 2.74407 0
    endloop
  endfacet
  facet normal 0 0 -1
    outer loop
      vertex 1.20561 1.89974 0
      vertex 1.74144 2.74407 0
      vertex 1.4342 1.73365 0
    endloop
  endfacet
  facet normal -0 0 -1
    outer loop
      vertex 1.74144 2.74407 0
      vertex 1.20561 1.89974 0
      vertex 1.38378 2.94069 0
    endloop
  endfacet
  facet normal 0 0 -1
    outer loop
      vertex 0.958003 2.03586 0
      vertex 1.38378 2.94069 0
      vertex 1.20561 1.89974 0
    endloop
  endfacet
  facet normal -0 0 -1
    outer loop
      vertex 1.38378 2.94069 0
      vertex 0.958003 2.03586 0
      vertex 1.0043 3.09093 0
    endloop
  endfacet
  facet normal 0 0 -1
    outer loop
      vertex 0.695288 2.13988 0
      vertex 1.0043 3.09093 0
      vertex 0.958003 2.03586 0
    endloop
  endfacet
  facet normal 0 0 -1
    outer loop
      vertex 0.695288 2.13988 0
      vertex 0.608989 3.19243 0
      vertex 1.0043 3.09093 0
    endloop
  endfacet
  facet normal 0 0 -1
    outer loop
      vertex 0.421607 2.21015 0
      vertex 0.608989 3.19243 0
      vertex 0.695288 2.13988 0
    endloop
  endfacet
  facet normal 0 0 -1
    outer loop
      vertex 0.421607 2.21015 0
      vertex 0.204069 3.24359 0
      vertex 0.608989 3.19243 0
    endloop
  endfacet
  facet normal 0 0 -1
    outer loop
      vertex 0.141278 2.24556 0
      vertex 0.204069 3.24359 0
      vertex 0.421607 2.21015 0
    endloop
  endfacet
  facet normal 0 0 -1
    outer loop
      vertex -0.141278 2.24556 0
      vertex 0.204069 3.24359 0
      vertex 0.141278 2.24556 0
    endloop
  endfacet
  facet normal 0 0 -1
    outer loop
      vertex -0.141278 2.24556 0
      vertex -0.204069 3.24359 0
      vertex 0.204069 3.24359 0
    endloop
  endfacet
  facet normal 0 0 -1
    outer loop
      vertex -0.421607 2.21015 0
      vertex -0.204069 3.24359 0
      vertex -0.141278 2.24556 0
    endloop
  endfacet
  facet normal 0 0 -1
    outer loop
      vertex -0.421607 2.21015 0
      vertex -0.608989 3.19243 0
      vertex -0.204069 3.24359 0
    endloop
  endfacet
  facet normal 0 0 -1
    outer loop
      vertex -0.695288 2.13988 0
      vertex -0.608989 3.19243 0
      vertex -0.421607 2.21015 0
    endloop
  endfacet
  facet normal 0 0 -1
    outer loop
      vertex -1.0043 3.09093 0
      vertex -0.695288 2.13988 0
      vertex -0.958003 2.03586 0
    endloop
  endfacet
  facet normal 0 0 -1
    outer loop
      vertex -0.695288 2.13988 0
      vertex -1.0043 3.09093 0
      vertex -0.608989 3.19243 0
    endloop
  endfacet
  facet normal 0 0 -1
    outer loop
      vertex -1.38378 2.94069 0
      vertex -0.958003 2.03586 0
      vertex -1.20561 1.89974 0
    endloop
  endfacet
  facet normal 0 0 -1
    outer loop
      vertex -0.958003 2.03586 0
      vertex -1.38378 2.94069 0
      vertex -1.0043 3.09093 0
    endloop
  endfacet
  facet normal 0 0 -1
    outer loop
      vertex -1.74144 2.74407 0
      vertex -1.20561 1.89974 0
      vertex -1.4342 1.73365 0
    endloop
  endfacet
  facet normal 0 0 -1
    outer loop
      vertex -2.07163 2.50417 0
      vertex -1.4342 1.73365 0
      vertex -1.64018 1.54023 0
    endloop
  endfacet
  facet normal 0 0 -1
    outer loop
      vertex -1.20561 1.89974 0
      vertex -1.74144 2.74407 0
      vertex -1.38378 2.94069 0
    endloop
  endfacet
  facet normal 0 0 -1
    outer loop
      vertex -2.36915 2.22478 0
      vertex -1.64018 1.54023 0
      vertex -1.82029 1.32252 0
    endloop
  endfacet
  facet normal 0 0 -1
    outer loop
      vertex -2.6293 1.9103 0
      vertex -1.82029 1.32252 0
      vertex -1.97169 1.08395 0
    endloop
  endfacet
  facet normal 0 0 -1
    outer loop
      vertex -1.4342 1.73365 0
      vertex -2.07163 2.50417 0
      vertex -1.74144 2.74407 0
    endloop
  endfacet
  facet normal 0 0 -1
    outer loop
      vertex -2.848 1.5657 0
      vertex -1.97169 1.08395 0
      vertex -2.092 0.828279 0
    endloop
  endfacet
  facet normal 0 0 -1
    outer loop
      vertex -3.02177 1.1964 0
      vertex -2.092 0.828279 0
      vertex -2.17931 0.559552 0
    endloop
  endfacet
  facet normal 0 0 -1
    outer loop
      vertex -3.14789 0.808242 0
      vertex -2.17931 0.559552 0
      vertex -2.23226 0.282 0
    endloop
  endfacet
  facet normal 0 0 -1
    outer loop
      vertex -1.64018 1.54023 0
      vertex -2.36915 2.22478 0
      vertex -2.07163 2.50417 0
    endloop
  endfacet
  facet normal 0 0 -1
    outer loop
      vertex -3.22437 0.407332 0
      vertex -2.23226 0.282 0
      vertex -2.25 0 0
    endloop
  endfacet
  facet normal -0 0 -1
    outer loop
      vertex -2.092 -0.828279 0
      vertex -3.02177 -1.1964 0
      vertex -2.17931 -0.559552 0
    endloop
  endfacet
  facet normal 0 0 -1
    outer loop
      vertex -3.14789 -0.808242 0
      vertex -2.17931 -0.559552 0
      vertex -3.02177 -1.1964 0
    endloop
  endfacet
  facet normal 0 0 -1
    outer loop
      vertex -1.82029 1.32252 0
      vertex -2.6293 1.9103 0
      vertex -2.36915 2.22478 0
    endloop
  endfacet
  facet normal -0 0 -1
    outer loop
      vertex -2.17931 -0.559552 0
      vertex -3.14789 -0.808242 0
      vertex -2.23226 -0.282 0
    endloop
  endfacet
  facet normal 0 0 -1
    outer loop
      vertex -1.97169 1.08395 0
      vertex -2.848 1.5657 0
      vertex -2.6293 1.9103 0
    endloop
  endfacet
  facet normal 0 0 -1
    outer loop
      vertex -3.22437 -0.407332 0
      vertex -2.23226 -0.282 0
      vertex -3.14789 -0.808242 0
    endloop
  endfacet
  facet normal 0 0 -1
    outer loop
      vertex -2.092 0.828279 0
      vertex -3.02177 1.1964 0
      vertex -2.848 1.5657 0
    endloop
  endfacet
  facet normal -0 0 -1
    outer loop
      vertex -2.23226 -0.282 0
      vertex -3.22437 -0.407332 0
      vertex -2.25 0 0
    endloop
  endfacet
  facet normal 0 0 -1
    outer loop
      vertex -2.17931 0.559552 0
      vertex -3.14789 0.808242 0
      vertex -3.02177 1.1964 0
    endloop
  endfacet
  facet normal 0 0 -1
    outer loop
      vertex -3.25 0 0
      vertex -2.25 0 0
      vertex -3.22437 -0.407332 0
    endloop
  endfacet
  facet normal 0 0 -1
    outer loop
      vertex -2.23226 0.282 0
      vertex -3.22437 0.407332 0
      vertex -3.14789 0.808242 0
    endloop
  endfacet
  facet normal 0 0 -1
    outer loop
      vertex -2.25 0 0
      vertex -3.25 0 0
      vertex -3.22437 0.407332 0
    endloop
  endfacet
  facet normal 0 0 -1
    outer loop
      vertex 6.45 -8 0
      vertex 2.23226 -0.282 0
      vertex 2.25 0 0
    endloop
  endfacet
  facet normal 0 0 -1
    outer loop
      vertex 2.25 -2.33666 0
      vertex 2.17931 -0.559552 0
      vertex 2.23226 -0.282 0
    endloop
  endfacet
  facet normal 0 0 -1
    outer loop
      vertex 2.25 -2.33666 0
      vertex 2.092 -0.828279 0
      vertex 2.17931 -0.559552 0
    endloop
  endfacet
  facet normal 0 0 -1
    outer loop
      vertex 1.4342 -1.73365 0
      vertex 2.25 -2.33666 0
      vertex 2.07163 -2.50417 0
    endloop
  endfacet
  facet normal 0 0 -1
    outer loop
      vertex 2.25 -2.33666 0
      vertex 1.97169 -1.08395 0
      vertex 2.092 -0.828279 0
    endloop
  endfacet
  facet normal 0 0 -1
    outer loop
      vertex 2.25 -2.33666 0
      vertex 1.82029 -1.32252 0
      vertex 1.97169 -1.08395 0
    endloop
  endfacet
  facet normal 0 0 -1
    outer loop
      vertex 1.4342 -1.73365 0
      vertex 2.07163 -2.50417 0
      vertex 1.74144 -2.74407 0
    endloop
  endfacet
  facet normal 0 0 -1
    outer loop
      vertex 2.25 -2.33666 0
      vertex 1.64018 -1.54023 0
      vertex 1.82029 -1.32252 0
    endloop
  endfacet
  facet normal 0 0 -1
    outer loop
      vertex 2.25 -2.33666 0
      vertex 1.4342 -1.73365 0
      vertex 1.64018 -1.54023 0
    endloop
  endfacet
  facet normal 0 0 -1
    outer loop
      vertex 1.20561 -1.89974 0
      vertex 1.74144 -2.74407 0
      vertex 1.38378 -2.94069 0
    endloop
  endfacet
  facet normal 0 0 -1
    outer loop
      vertex 1.74144 -2.74407 0
      vertex 1.20561 -1.89974 0
      vertex 1.4342 -1.73365 0
    endloop
  endfacet
  facet normal 0 0 -1
    outer loop
      vertex 0.958003 -2.03586 0
      vertex 1.38378 -2.94069 0
      vertex 1.0043 -3.09093 0
    endloop
  endfacet
  facet normal 0 0 -1
    outer loop
      vertex 1.38378 -2.94069 0
      vertex 0.958003 -2.03586 0
      vertex 1.20561 -1.89974 0
    endloop
  endfacet
  facet normal 0 0 -1
    outer loop
      vertex 1.0043 -3.09093 0
      vertex 0.695288 -2.13988 0
      vertex 0.958003 -2.03586 0
    endloop
  endfacet
  facet normal 0 0 -1
    outer loop
      vertex 0.608989 -3.19243 0
      vertex 0.695288 -2.13988 0
      vertex 1.0043 -3.09093 0
    endloop
  endfacet
  facet normal 0 0 -1
    outer loop
      vertex 0.608989 -3.19243 0
      vertex 0.421607 -2.21015 0
      vertex 0.695288 -2.13988 0
    endloop
  endfacet
  facet normal 0 0 -1
    outer loop
      vertex 0.204069 -3.24359 0
      vertex 0.421607 -2.21015 0
      vertex 0.608989 -3.19243 0
    endloop
  endfacet
  facet normal 0 0 -1
    outer loop
      vertex 0.204069 -3.24359 0
      vertex 0.141278 -2.24556 0
      vertex 0.421607 -2.21015 0
    endloop
  endfacet
  facet normal 0 0 -1
    outer loop
      vertex 0.204069 -3.24359 0
      vertex -0.141278 -2.24556 0
      vertex 0.141278 -2.24556 0
    endloop
  endfacet
  facet normal 0 0 -1
    outer loop
      vertex -0.204069 -3.24359 0
      vertex -0.141278 -2.24556 0
      vertex 0.204069 -3.24359 0
    endloop
  endfacet
  facet normal 0 0 -1
    outer loop
      vertex -0.204069 -3.24359 0
      vertex -0.421607 -2.21015 0
      vertex -0.141278 -2.24556 0
    endloop
  endfacet
  facet normal 0 0 -1
    outer loop
      vertex -0.608989 -3.19243 0
      vertex -0.421607 -2.21015 0
      vertex -0.204069 -3.24359 0
    endloop
  endfacet
  facet normal 0 0 -1
    outer loop
      vertex -0.608989 -3.19243 0
      vertex -0.695288 -2.13988 0
      vertex -0.421607 -2.21015 0
    endloop
  endfacet
  facet normal 0 0 -1
    outer loop
      vertex -1.0043 -3.09093 0
      vertex -0.695288 -2.13988 0
      vertex -0.608989 -3.19243 0
    endloop
  endfacet
  facet normal -0 0 -1
    outer loop
      vertex -0.695288 -2.13988 0
      vertex -1.0043 -3.09093 0
      vertex -0.958003 -2.03586 0
    endloop
  endfacet
  facet normal 0 0 -1
    outer loop
      vertex -1.38378 -2.94069 0
      vertex -0.958003 -2.03586 0
      vertex -1.0043 -3.09093 0
    endloop
  endfacet
  facet normal -0 0 -1
    outer loop
      vertex -0.958003 -2.03586 0
      vertex -1.38378 -2.94069 0
      vertex -1.20561 -1.89974 0
    endloop
  endfacet
  facet normal 0 0 -1
    outer loop
      vertex -1.74144 -2.74407 0
      vertex -1.20561 -1.89974 0
      vertex -1.38378 -2.94069 0
    endloop
  endfacet
  facet normal -0 0 -1
    outer loop
      vertex -1.20561 -1.89974 0
      vertex -1.74144 -2.74407 0
      vertex -1.4342 -1.73365 0
    endloop
  endfacet
  facet normal 0 0 -1
    outer loop
      vertex -2.07163 -2.50417 0
      vertex -1.4342 -1.73365 0
      vertex -1.74144 -2.74407 0
    endloop
  endfacet
  facet normal -0 0 -1
    outer loop
      vertex -1.4342 -1.73365 0
      vertex -2.07163 -2.50417 0
      vertex -1.64018 -1.54023 0
    endloop
  endfacet
  facet normal 0 0 -1
    outer loop
      vertex -2.36915 -2.22478 0
      vertex -1.64018 -1.54023 0
      vertex -2.07163 -2.50417 0
    endloop
  endfacet
  facet normal -0 0 -1
    outer loop
      vertex -1.64018 -1.54023 0
      vertex -2.36915 -2.22478 0
      vertex -1.82029 -1.32252 0
    endloop
  endfacet
  facet normal 0 0 -1
    outer loop
      vertex -2.6293 -1.9103 0
      vertex -1.82029 -1.32252 0
      vertex -2.36915 -2.22478 0
    endloop
  endfacet
  facet normal -0 0 -1
    outer loop
      vertex -1.82029 -1.32252 0
      vertex -2.6293 -1.9103 0
      vertex -1.97169 -1.08395 0
    endloop
  endfacet
  facet normal 0 0 -1
    outer loop
      vertex -2.848 -1.5657 0
      vertex -1.97169 -1.08395 0
      vertex -2.6293 -1.9103 0
    endloop
  endfacet
  facet normal 0 0 -1
    outer loop
      vertex -3.02177 -1.1964 0
      vertex -2.092 -0.828279 0
      vertex -2.848 -1.5657 0
    endloop
  endfacet
  facet normal -0 0 -1
    outer loop
      vertex -1.97169 -1.08395 0
      vertex -2.848 -1.5657 0
      vertex -2.092 -0.828279 0
    endloop
  endfacet
  facet normal 0 0 -1
    outer loop
      vertex 2.25 -2.33666 0
      vertex 6.45 -8 0
      vertex 2.25 -8 0
    endloop
  endfacet
  facet normal 0 0 -1
    outer loop
      vertex 2.23226 -0.282 0
      vertex 6.45 -8 0
      vertex 2.25 -2.33666 0
    endloop
  endfacet
  facet normal 0 0 -1
    outer loop
      vertex 6.45 -8 0
      vertex 2.25 0 0
      vertex 6.45 8 0
    endloop
  endfacet
  facet normal 0 0 -1
    outer loop
      vertex 2.23226 0.282 0
      vertex 6.45 8 0
      vertex 2.25 0 0
    endloop
  endfacet
  facet normal -0 0 -1
    outer loop
      vertex 6.45 8 0
      vertex 2.25 2.33666 0
      vertex 2.25 8 0
    endloop
  endfacet
  facet normal 0.587786 -0.809017 0
    outer loop
      vertex 1.74144 -2.74407 0
      vertex 2.07163 -2.50417 13.75
      vertex 1.74144 -2.74407 13.75
    endloop
  endfacet
  facet normal 0.587786 -0.809017 0
    outer loop
      vertex 2.07163 -2.50417 13.75
      vertex 1.74144 -2.74407 0
      vertex 2.07163 -2.50417 0
    endloop
  endfacet
  facet normal 0.481753 -0.876307 0
    outer loop
      vertex 1.38378 -2.94069 0
      vertex 1.74144 -2.74407 13.75
      vertex 1.38378 -2.94069 13.75
    endloop
  endfacet
  facet normal 0.481753 -0.876307 0
    outer loop
      vertex 1.74144 -2.74407 13.75
      vertex 1.38378 -2.94069 0
      vertex 1.74144 -2.74407 0
    endloop
  endfacet
  facet normal 0.481753 0.876307 -0
    outer loop
      vertex 1.74144 2.74407 0
      vertex 1.38378 2.94069 13.75
      vertex 1.74144 2.74407 13.75
    endloop
  endfacet
  facet normal 0.481753 0.876307 0
    outer loop
      vertex 1.38378 2.94069 13.75
      vertex 1.74144 2.74407 0
      vertex 1.38378 2.94069 0
    endloop
  endfacet
  facet normal -0.248691 0.968583 0
    outer loop
      vertex -0.608989 3.19243 0
      vertex -1.0043 3.09093 13.75
      vertex -0.608989 3.19243 13.75
    endloop
  endfacet
  facet normal -0.248691 0.968583 0
    outer loop
      vertex -1.0043 3.09093 13.75
      vertex -0.608989 3.19243 0
      vertex -1.0043 3.09093 0
    endloop
  endfacet
  facet normal 0.844329 -0.535826 0
    outer loop
      vertex 2.6293 -1.9103 13.75
      vertex 2.848 -1.5657 2
      vertex 2.848 -1.5657 13.75
    endloop
  endfacet
  facet normal 0.844329 -0.535826 0
    outer loop
      vertex 2.848 -1.5657 2
      vertex 2.6293 -1.9103 13.75
      vertex 2.6293 -1.9103 2
    endloop
  endfacet
  facet normal 0.998027 -0.0627927 0
    outer loop
      vertex 3.22437 -0.407332 13.75
      vertex 3.25 0 2
      vertex 3.25 0 13.75
    endloop
  endfacet
  facet normal 0.998027 -0.0627927 0
    outer loop
      vertex 3.25 0 2
      vertex 3.22437 -0.407332 13.75
      vertex 3.22437 -0.407332 2
    endloop
  endfacet
  facet normal -0.770513 -0.637425 0
    outer loop
      vertex -2.36915 -2.22478 0
      vertex -2.6293 -1.9103 13.75
      vertex -2.6293 -1.9103 0
    endloop
  endfacet
  facet normal -0.770513 -0.637425 0
    outer loop
      vertex -2.6293 -1.9103 13.75
      vertex -2.36915 -2.22478 0
      vertex -2.36915 -2.22478 13.75
    endloop
  endfacet
  facet normal -0.951057 -0.309017 0
    outer loop
      vertex -3.02177 -1.1964 0
      vertex -3.14789 -0.808242 13.75
      vertex -3.14789 -0.808242 0
    endloop
  endfacet
  facet normal -0.951057 -0.309017 0
    outer loop
      vertex -3.14789 -0.808242 13.75
      vertex -3.02177 -1.1964 0
      vertex -3.02177 -1.1964 13.75
    endloop
  endfacet
  facet normal -0.998027 -0.0627927 0
    outer loop
      vertex -3.22437 -0.407332 0
      vertex -3.25 0 13.75
      vertex -3.25 0 0
    endloop
  endfacet
  facet normal -0.998027 -0.0627927 0
    outer loop
      vertex -3.25 0 13.75
      vertex -3.22437 -0.407332 0
      vertex -3.22437 -0.407332 13.75
    endloop
  endfacet
  facet normal 0.684548 -0.728968 -5.4024e-009
    outer loop
      vertex 2.07163 -2.50417 13.75
      vertex 2.25 -2.33666 2
      vertex 2.36915 -2.22478 13.75
    endloop
  endfacet
  facet normal 0.684548 -0.728968 0
    outer loop
      vertex 2.07163 -2.50417 0
      vertex 2.25 -2.33666 2
      vertex 2.07163 -2.50417 13.75
    endloop
  endfacet
  facet normal 0.684548 -0.728968 0
    outer loop
      vertex 2.25 -2.33666 2
      vertex 2.07163 -2.50417 0
      vertex 2.25 -2.33666 0
    endloop
  endfacet
  facet normal 0.684548 -0.728968 0
    outer loop
      vertex 2.36915 -2.22478 13.75
      vertex 2.25 -2.33666 2
      vertex 2.36915 -2.22478 2
    endloop
  endfacet
  facet normal 0.904826 -0.425781 0
    outer loop
      vertex 2.848 -1.5657 13.75
      vertex 3.02177 -1.1964 2
      vertex 3.02177 -1.1964 13.75
    endloop
  endfacet
  facet normal 0.904826 -0.425781 0
    outer loop
      vertex 3.02177 -1.1964 2
      vertex 2.848 -1.5657 13.75
      vertex 2.848 -1.5657 2
    endloop
  endfacet
  facet normal -0.481753 -0.876307 0
    outer loop
      vertex -1.74144 -2.74407 0
      vertex -1.38378 -2.94069 13.75
      vertex -1.74144 -2.74407 13.75
    endloop
  endfacet
  facet normal -0.481753 -0.876307 -0
    outer loop
      vertex -1.38378 -2.94069 13.75
      vertex -1.74144 -2.74407 0
      vertex -1.38378 -2.94069 0
    endloop
  endfacet
  facet normal -0.248691 -0.968583 0
    outer loop
      vertex -1.0043 -3.09093 0
      vertex -0.608989 -3.19243 13.75
      vertex -1.0043 -3.09093 13.75
    endloop
  endfacet
  facet normal -0.248691 -0.968583 -0
    outer loop
      vertex -0.608989 -3.19243 13.75
      vertex -1.0043 -3.09093 0
      vertex -0.608989 -3.19243 0
    endloop
  endfacet
  facet normal -0.684548 -0.728968 0
    outer loop
      vertex -2.36915 -2.22478 0
      vertex -2.07163 -2.50417 13.75
      vertex -2.36915 -2.22478 13.75
    endloop
  endfacet
  facet normal -0.684548 -0.728968 -0
    outer loop
      vertex -2.07163 -2.50417 13.75
      vertex -2.36915 -2.22478 0
      vertex -2.07163 -2.50417 0
    endloop
  endfacet
  facet normal -0.844329 -0.535826 0
    outer loop
      vertex -2.6293 -1.9103 0
      vertex -2.848 -1.5657 13.75
      vertex -2.848 -1.5657 0
    endloop
  endfacet
  facet normal -0.844329 -0.535826 0
    outer loop
      vertex -2.848 -1.5657 13.75
      vertex -2.6293 -1.9103 0
      vertex -2.6293 -1.9103 13.75
    endloop
  endfacet
  facet normal -0.904826 -0.425781 0
    outer loop
      vertex -2.848 -1.5657 0
      vertex -3.02177 -1.1964 13.75
      vertex -3.02177 -1.1964 0
    endloop
  endfacet
  facet normal -0.904826 -0.425781 0
    outer loop
      vertex -3.02177 -1.1964 13.75
      vertex -2.848 -1.5657 0
      vertex -2.848 -1.5657 13.75
    endloop
  endfacet
  facet normal -0.982287 -0.18738 0
    outer loop
      vertex -3.14789 -0.808242 0
      vertex -3.22437 -0.407332 13.75
      vertex -3.22437 -0.407332 0
    endloop
  endfacet
  facet normal -0.982287 -0.18738 0
    outer loop
      vertex -3.22437 -0.407332 13.75
      vertex -3.14789 -0.808242 0
      vertex -3.14789 -0.808242 13.75
    endloop
  endfacet
  facet normal 0.770513 -0.637425 0
    outer loop
      vertex 2.36915 -2.22478 13.75
      vertex 2.6293 -1.9103 2
      vertex 2.6293 -1.9103 13.75
    endloop
  endfacet
  facet normal 0.770513 -0.637425 0
    outer loop
      vertex 2.6293 -1.9103 2
      vertex 2.36915 -2.22478 13.75
      vertex 2.36915 -2.22478 2
    endloop
  endfacet
  facet normal 0.248691 -0.968583 0
    outer loop
      vertex 0.608989 -3.19243 0
      vertex 1.0043 -3.09093 13.75
      vertex 0.608989 -3.19243 13.75
    endloop
  endfacet
  facet normal 0.248691 -0.968583 0
    outer loop
      vertex 1.0043 -3.09093 13.75
      vertex 0.608989 -3.19243 0
      vertex 1.0043 -3.09093 0
    endloop
  endfacet
  facet normal 0.368124 -0.929777 0
    outer loop
      vertex 1.0043 -3.09093 0
      vertex 1.38378 -2.94069 13.75
      vertex 1.0043 -3.09093 13.75
    endloop
  endfacet
  facet normal 0.368124 -0.929777 0
    outer loop
      vertex 1.38378 -2.94069 13.75
      vertex 1.0043 -3.09093 0
      vertex 1.38378 -2.94069 0
    endloop
  endfacet
  facet normal -0.587786 -0.809017 0
    outer loop
      vertex -2.07163 -2.50417 0
      vertex -1.74144 -2.74407 13.75
      vertex -2.07163 -2.50417 13.75
    endloop
  endfacet
  facet normal -0.587786 -0.809017 -0
    outer loop
      vertex -1.74144 -2.74407 13.75
      vertex -2.07163 -2.50417 0
      vertex -1.74144 -2.74407 0
    endloop
  endfacet
  facet normal -0.125333 -0.992115 0
    outer loop
      vertex -0.608989 -3.19243 0
      vertex -0.204069 -3.24359 13.75
      vertex -0.608989 -3.19243 13.75
    endloop
  endfacet
  facet normal -0.125333 -0.992115 -0
    outer loop
      vertex -0.204069 -3.24359 13.75
      vertex -0.608989 -3.19243 0
      vertex -0.204069 -3.24359 0
    endloop
  endfacet
  facet normal -0.998027 -0.0627914 -0
    outer loop
      vertex 2.25 0 2
      vertex 2.23226 0.282 0
      vertex 2.25 0 0
    endloop
  endfacet
  facet normal -0.998027 -0.0627914 0
    outer loop
      vertex 2.23226 0.282 0
      vertex 2.25 0 2
      vertex 2.23226 0.282 13.75
    endloop
  endfacet
  facet normal -0.998027 -0.0627914 0
    outer loop
      vertex 2.23226 0.282 13.75
      vertex 2.25 0 2
      vertex 2.25 0 13.75
    endloop
  endfacet
  facet normal 0.998027 -0.0627914 0
    outer loop
      vertex -2.25 0 13.75
      vertex -2.23226 0.282 0
      vertex -2.23226 0.282 13.75
    endloop
  endfacet
  facet normal 0.998027 -0.0627914 0
    outer loop
      vertex -2.23226 0.282 0
      vertex -2.25 0 13.75
      vertex -2.25 0 0
    endloop
  endfacet
  facet normal 0 -1 0
    outer loop
      vertex -0.141278 2.24556 0
      vertex 0.141278 2.24556 13.75
      vertex -0.141278 2.24556 13.75
    endloop
  endfacet
  facet normal 0 -1 -0
    outer loop
      vertex 0.141278 2.24556 13.75
      vertex -0.141278 2.24556 0
      vertex 0.141278 2.24556 0
    endloop
  endfacet
  facet normal 0 1 -0
    outer loop
      vertex 0.141278 -2.24556 0
      vertex -0.141278 -2.24556 13.75
      vertex 0.141278 -2.24556 13.75
    endloop
  endfacet
  facet normal 0 1 0
    outer loop
      vertex -0.141278 -2.24556 13.75
      vertex 0.141278 -2.24556 0
      vertex -0.141278 -2.24556 0
    endloop
  endfacet
  facet normal -0.770513 0.637424 0
    outer loop
      vertex 1.64018 -1.54023 0
      vertex 1.82029 -1.32252 13.75
      vertex 1.82029 -1.32252 0
    endloop
  endfacet
  facet normal -0.770513 0.637424 0
    outer loop
      vertex 1.82029 -1.32252 13.75
      vertex 1.64018 -1.54023 0
      vertex 1.64018 -1.54023 13.75
    endloop
  endfacet
  facet normal -0.684546 -0.72897 0
    outer loop
      vertex 1.4342 1.73365 0
      vertex 1.64018 1.54023 13.75
      vertex 1.4342 1.73365 13.75
    endloop
  endfacet
  facet normal -0.684546 -0.72897 -0
    outer loop
      vertex 1.64018 1.54023 13.75
      vertex 1.4342 1.73365 0
      vertex 1.64018 1.54023 0
    endloop
  endfacet
  facet normal 0.684546 -0.72897 0
    outer loop
      vertex -1.64018 1.54023 0
      vertex -1.4342 1.73365 13.75
      vertex -1.64018 1.54023 13.75
    endloop
  endfacet
  facet normal 0.684546 -0.72897 0
    outer loop
      vertex -1.4342 1.73365 13.75
      vertex -1.64018 1.54023 0
      vertex -1.4342 1.73365 0
    endloop
  endfacet
  facet normal 0.368124 -0.929777 0
    outer loop
      vertex -0.958003 2.03586 0
      vertex -0.695288 2.13988 13.75
      vertex -0.958003 2.03586 13.75
    endloop
  endfacet
  facet normal 0.368124 -0.929777 0
    outer loop
      vertex -0.695288 2.13988 13.75
      vertex -0.958003 2.03586 0
      vertex -0.695288 2.13988 0
    endloop
  endfacet
  facet normal -0.904827 -0.425779 0
    outer loop
      vertex 2.092 0.828279 0
      vertex 1.97169 1.08395 13.75
      vertex 1.97169 1.08395 0
    endloop
  endfacet
  facet normal -0.904827 -0.425779 0
    outer loop
      vertex 1.97169 1.08395 13.75
      vertex 2.092 0.828279 0
      vertex 2.092 0.828279 13.75
    endloop
  endfacet
  facet normal -0.982287 -0.187382 0
    outer loop
      vertex 2.23226 0.282 0
      vertex 2.17931 0.559552 13.75
      vertex 2.17931 0.559552 0
    endloop
  endfacet
  facet normal -0.982287 -0.187382 0
    outer loop
      vertex 2.17931 0.559552 13.75
      vertex 2.23226 0.282 0
      vertex 2.23226 0.282 13.75
    endloop
  endfacet
  facet normal -0.368124 -0.929777 0
    outer loop
      vertex 0.695288 2.13988 0
      vertex 0.958003 2.03586 13.75
      vertex 0.695288 2.13988 13.75
    endloop
  endfacet
  facet normal -0.368124 -0.929777 -0
    outer loop
      vertex 0.958003 2.03586 13.75
      vertex 0.695288 2.13988 0
      vertex 0.958003 2.03586 0
    endloop
  endfacet
  facet normal -0.248691 -0.968583 0
    outer loop
      vertex 0.421607 2.21015 0
      vertex 0.695288 2.13988 13.75
      vertex 0.421607 2.21015 13.75
    endloop
  endfacet
  facet normal -0.248691 -0.968583 -0
    outer loop
      vertex 0.695288 2.13988 13.75
      vertex 0.421607 2.21015 0
      vertex 0.695288 2.13988 0
    endloop
  endfacet
  facet normal -0.587787 -0.809015 0
    outer loop
      vertex 1.20561 1.89974 0
      vertex 1.4342 1.73365 13.75
      vertex 1.20561 1.89974 13.75
    endloop
  endfacet
  facet normal -0.587787 -0.809015 -0
    outer loop
      vertex 1.4342 1.73365 13.75
      vertex 1.20561 1.89974 0
      vertex 1.4342 1.73365 0
    endloop
  endfacet
  facet normal 0.844328 -0.535826 0
    outer loop
      vertex -1.97169 1.08395 13.75
      vertex -1.82029 1.32252 0
      vertex -1.82029 1.32252 13.75
    endloop
  endfacet
  facet normal 0.844328 -0.535826 0
    outer loop
      vertex -1.82029 1.32252 0
      vertex -1.97169 1.08395 13.75
      vertex -1.97169 1.08395 0
    endloop
  endfacet
  facet normal 0.770513 -0.637424 0
    outer loop
      vertex -1.82029 1.32252 13.75
      vertex -1.64018 1.54023 0
      vertex -1.64018 1.54023 13.75
    endloop
  endfacet
  facet normal 0.770513 -0.637424 0
    outer loop
      vertex -1.64018 1.54023 0
      vertex -1.82029 1.32252 13.75
      vertex -1.82029 1.32252 0
    endloop
  endfacet
  facet normal 0.951056 -0.309019 0
    outer loop
      vertex -2.17931 0.559552 13.75
      vertex -2.092 0.828279 0
      vertex -2.092 0.828279 13.75
    endloop
  endfacet
  facet normal 0.951056 -0.309019 0
    outer loop
      vertex -2.092 0.828279 0
      vertex -2.17931 0.559552 13.75
      vertex -2.17931 0.559552 0
    endloop
  endfacet
  facet normal 0.481752 -0.876307 0
    outer loop
      vertex -1.20561 1.89974 0
      vertex -0.958003 2.03586 13.75
      vertex -1.20561 1.89974 13.75
    endloop
  endfacet
  facet normal 0.481752 -0.876307 0
    outer loop
      vertex -0.958003 2.03586 13.75
      vertex -1.20561 1.89974 0
      vertex -0.958003 2.03586 0
    endloop
  endfacet
  facet normal 0.125333 -0.992115 0
    outer loop
      vertex -0.421607 2.21015 0
      vertex -0.141278 2.24556 13.75
      vertex -0.421607 2.21015 13.75
    endloop
  endfacet
  facet normal 0.125333 -0.992115 0
    outer loop
      vertex -0.141278 2.24556 13.75
      vertex -0.421607 2.21015 0
      vertex -0.141278 2.24556 0
    endloop
  endfacet
  facet normal -0.125333 0.992115 0
    outer loop
      vertex 0.421607 -2.21015 0
      vertex 0.141278 -2.24556 13.75
      vertex 0.421607 -2.21015 13.75
    endloop
  endfacet
  facet normal -0.125333 0.992115 0
    outer loop
      vertex 0.141278 -2.24556 13.75
      vertex 0.421607 -2.21015 0
      vertex 0.141278 -2.24556 0
    endloop
  endfacet
  facet normal -0.951056 -0.309019 0
    outer loop
      vertex 2.17931 0.559552 0
      vertex 2.092 0.828279 13.75
      vertex 2.092 0.828279 0
    endloop
  endfacet
  facet normal -0.951056 -0.309019 0
    outer loop
      vertex 2.092 0.828279 13.75
      vertex 2.17931 0.559552 0
      vertex 2.17931 0.559552 13.75
    endloop
  endfacet
  facet normal -0.770513 -0.637424 0
    outer loop
      vertex 1.82029 1.32252 0
      vertex 1.64018 1.54023 13.75
      vertex 1.64018 1.54023 0
    endloop
  endfacet
  facet normal -0.770513 -0.637424 0
    outer loop
      vertex 1.64018 1.54023 13.75
      vertex 1.82029 1.32252 0
      vertex 1.82029 1.32252 13.75
    endloop
  endfacet
  facet normal -0.844328 -0.535826 0
    outer loop
      vertex 1.97169 1.08395 0
      vertex 1.82029 1.32252 13.75
      vertex 1.82029 1.32252 0
    endloop
  endfacet
  facet normal -0.844328 -0.535826 0
    outer loop
      vertex 1.82029 1.32252 13.75
      vertex 1.97169 1.08395 0
      vertex 1.97169 1.08395 13.75
    endloop
  endfacet
  facet normal -0.125333 -0.992115 0
    outer loop
      vertex 0.141278 2.24556 0
      vertex 0.421607 2.21015 13.75
      vertex 0.141278 2.24556 13.75
    endloop
  endfacet
  facet normal -0.125333 -0.992115 -0
    outer loop
      vertex 0.421607 2.21015 13.75
      vertex 0.141278 2.24556 0
      vertex 0.421607 2.21015 0
    endloop
  endfacet
  facet normal -0.481752 -0.876307 0
    outer loop
      vertex 0.958003 2.03586 0
      vertex 1.20561 1.89974 13.75
      vertex 0.958003 2.03586 13.75
    endloop
  endfacet
  facet normal -0.481752 -0.876307 -0
    outer loop
      vertex 1.20561 1.89974 13.75
      vertex 0.958003 2.03586 0
      vertex 1.20561 1.89974 0
    endloop
  endfacet
  facet normal 0.904827 -0.425779 0
    outer loop
      vertex -2.092 0.828279 13.75
      vertex -1.97169 1.08395 0
      vertex -1.97169 1.08395 13.75
    endloop
  endfacet
  facet normal 0.904827 -0.425779 0
    outer loop
      vertex -1.97169 1.08395 0
      vertex -2.092 0.828279 13.75
      vertex -2.092 0.828279 0
    endloop
  endfacet
  facet normal 0.982287 -0.187382 0
    outer loop
      vertex -2.23226 0.282 13.75
      vertex -2.17931 0.559552 0
      vertex -2.17931 0.559552 13.75
    endloop
  endfacet
  facet normal 0.982287 -0.187382 0
    outer loop
      vertex -2.17931 0.559552 0
      vertex -2.23226 0.282 13.75
      vertex -2.23226 0.282 0
    endloop
  endfacet
  facet normal 0.587787 -0.809015 0
    outer loop
      vertex -1.4342 1.73365 0
      vertex -1.20561 1.89974 13.75
      vertex -1.4342 1.73365 13.75
    endloop
  endfacet
  facet normal 0.587787 -0.809015 0
    outer loop
      vertex -1.20561 1.89974 13.75
      vertex -1.4342 1.73365 0
      vertex -1.20561 1.89974 0
    endloop
  endfacet
  facet normal -0.844328 0.535826 0
    outer loop
      vertex 1.82029 -1.32252 0
      vertex 1.97169 -1.08395 13.75
      vertex 1.97169 -1.08395 0
    endloop
  endfacet
  facet normal -0.844328 0.535826 0
    outer loop
      vertex 1.97169 -1.08395 13.75
      vertex 1.82029 -1.32252 0
      vertex 1.82029 -1.32252 13.75
    endloop
  endfacet
  facet normal -0.982287 0.187382 0
    outer loop
      vertex 2.17931 -0.559552 0
      vertex 2.23226 -0.282 13.75
      vertex 2.23226 -0.282 0
    endloop
  endfacet
  facet normal -0.982287 0.187382 0
    outer loop
      vertex 2.23226 -0.282 13.75
      vertex 2.17931 -0.559552 0
      vertex 2.17931 -0.559552 13.75
    endloop
  endfacet
  facet normal -0.684546 0.72897 0
    outer loop
      vertex 1.64018 -1.54023 0
      vertex 1.4342 -1.73365 13.75
      vertex 1.64018 -1.54023 13.75
    endloop
  endfacet
  facet normal -0.684546 0.72897 0
    outer loop
      vertex 1.4342 -1.73365 13.75
      vertex 1.64018 -1.54023 0
      vertex 1.4342 -1.73365 0
    endloop
  endfacet
  facet normal -0.368124 0.929777 0
    outer loop
      vertex 0.958003 -2.03586 0
      vertex 0.695288 -2.13988 13.75
      vertex 0.958003 -2.03586 13.75
    endloop
  endfacet
  facet normal -0.368124 0.929777 0
    outer loop
      vertex 0.695288 -2.13988 13.75
      vertex 0.958003 -2.03586 0
      vertex 0.695288 -2.13988 0
    endloop
  endfacet
  facet normal 0.248691 -0.968583 0
    outer loop
      vertex -0.695288 2.13988 0
      vertex -0.421607 2.21015 13.75
      vertex -0.695288 2.13988 13.75
    endloop
  endfacet
  facet normal 0.248691 -0.968583 0
    outer loop
      vertex -0.421607 2.21015 13.75
      vertex -0.695288 2.13988 0
      vertex -0.421607 2.21015 0
    endloop
  endfacet
  facet normal -0.951056 0.309019 0
    outer loop
      vertex 2.092 -0.828279 0
      vertex 2.17931 -0.559552 13.75
      vertex 2.17931 -0.559552 0
    endloop
  endfacet
  facet normal -0.951056 0.309019 0
    outer loop
      vertex 2.17931 -0.559552 13.75
      vertex 2.092 -0.828279 0
      vertex 2.092 -0.828279 13.75
    endloop
  endfacet
  facet normal -0.904827 0.425779 0
    outer loop
      vertex 1.97169 -1.08395 0
      vertex 2.092 -0.828279 13.75
      vertex 2.092 -0.828279 0
    endloop
  endfacet
  facet normal -0.904827 0.425779 0
    outer loop
      vertex 2.092 -0.828279 13.75
      vertex 1.97169 -1.08395 0
      vertex 1.97169 -1.08395 13.75
    endloop
  endfacet
  facet normal -0.998027 0.0627914 0
    outer loop
      vertex 2.23226 -0.282 0
      vertex 2.25 0 2
      vertex 2.25 0 0
    endloop
  endfacet
  facet normal -0.998027 0.0627914 0
    outer loop
      vertex 2.23226 -0.282 13.75
      vertex 2.25 0 2
      vertex 2.23226 -0.282 0
    endloop
  endfacet
  facet normal -0.998027 0.0627914 0
    outer loop
      vertex 2.25 0 2
      vertex 2.23226 -0.282 13.75
      vertex 2.25 0 13.75
    endloop
  endfacet
  facet normal 0.368124 0.929777 -0
    outer loop
      vertex -0.695288 -2.13988 0
      vertex -0.958003 -2.03586 13.75
      vertex -0.695288 -2.13988 13.75
    endloop
  endfacet
  facet normal 0.368124 0.929777 0
    outer loop
      vertex -0.958003 -2.03586 13.75
      vertex -0.695288 -2.13988 0
      vertex -0.958003 -2.03586 0
    endloop
  endfacet
  facet normal 0.770513 0.637424 0
    outer loop
      vertex -1.64018 -1.54023 13.75
      vertex -1.82029 -1.32252 0
      vertex -1.82029 -1.32252 13.75
    endloop
  endfacet
  facet normal 0.770513 0.637424 0
    outer loop
      vertex -1.82029 -1.32252 0
      vertex -1.64018 -1.54023 13.75
      vertex -1.64018 -1.54023 0
    endloop
  endfacet
  facet normal 0.951056 0.309019 0
    outer loop
      vertex -2.092 -0.828279 13.75
      vertex -2.17931 -0.559552 0
      vertex -2.17931 -0.559552 13.75
    endloop
  endfacet
  facet normal 0.951056 0.309019 0
    outer loop
      vertex -2.17931 -0.559552 0
      vertex -2.092 -0.828279 13.75
      vertex -2.092 -0.828279 0
    endloop
  endfacet
  facet normal -0.587787 0.809015 0
    outer loop
      vertex 1.4342 -1.73365 0
      vertex 1.20561 -1.89974 13.75
      vertex 1.4342 -1.73365 13.75
    endloop
  endfacet
  facet normal -0.587787 0.809015 0
    outer loop
      vertex 1.20561 -1.89974 13.75
      vertex 1.4342 -1.73365 0
      vertex 1.20561 -1.89974 0
    endloop
  endfacet
  facet normal -0.481752 0.876307 0
    outer loop
      vertex 1.20561 -1.89974 0
      vertex 0.958003 -2.03586 13.75
      vertex 1.20561 -1.89974 13.75
    endloop
  endfacet
  facet normal -0.481752 0.876307 0
    outer loop
      vertex 0.958003 -2.03586 13.75
      vertex 1.20561 -1.89974 0
      vertex 0.958003 -2.03586 0
    endloop
  endfacet
  facet normal -0.248691 0.968583 0
    outer loop
      vertex 0.695288 -2.13988 0
      vertex 0.421607 -2.21015 13.75
      vertex 0.695288 -2.13988 13.75
    endloop
  endfacet
  facet normal -0.248691 0.968583 0
    outer loop
      vertex 0.421607 -2.21015 13.75
      vertex 0.695288 -2.13988 0
      vertex 0.421607 -2.21015 0
    endloop
  endfacet
  facet normal 0.684546 0.72897 -0
    outer loop
      vertex -1.4342 -1.73365 0
      vertex -1.64018 -1.54023 13.75
      vertex -1.4342 -1.73365 13.75
    endloop
  endfacet
  facet normal 0.684546 0.72897 0
    outer loop
      vertex -1.64018 -1.54023 13.75
      vertex -1.4342 -1.73365 0
      vertex -1.64018 -1.54023 0
    endloop
  endfacet
  facet normal 0.481752 0.876307 -0
    outer loop
      vertex -0.958003 -2.03586 0
      vertex -1.20561 -1.89974 13.75
      vertex -0.958003 -2.03586 13.75
    endloop
  endfacet
  facet normal 0.481752 0.876307 0
    outer loop
      vertex -1.20561 -1.89974 13.75
      vertex -0.958003 -2.03586 0
      vertex -1.20561 -1.89974 0
    endloop
  endfacet
  facet normal 0.587787 0.809015 -0
    outer loop
      vertex -1.20561 -1.89974 0
      vertex -1.4342 -1.73365 13.75
      vertex -1.20561 -1.89974 13.75
    endloop
  endfacet
  facet normal 0.587787 0.809015 0
    outer loop
      vertex -1.4342 -1.73365 13.75
      vertex -1.20561 -1.89974 0
      vertex -1.4342 -1.73365 0
    endloop
  endfacet
  facet normal 0.844328 0.535826 0
    outer loop
      vertex -1.82029 -1.32252 13.75
      vertex -1.97169 -1.08395 0
      vertex -1.97169 -1.08395 13.75
    endloop
  endfacet
  facet normal 0.844328 0.535826 0
    outer loop
      vertex -1.97169 -1.08395 0
      vertex -1.82029 -1.32252 13.75
      vertex -1.82029 -1.32252 0
    endloop
  endfacet
  facet normal 0.904827 0.425779 0
    outer loop
      vertex -1.97169 -1.08395 13.75
      vertex -2.092 -0.828279 0
      vertex -2.092 -0.828279 13.75
    endloop
  endfacet
  facet normal 0.904827 0.425779 0
    outer loop
      vertex -2.092 -0.828279 0
      vertex -1.97169 -1.08395 13.75
      vertex -1.97169 -1.08395 0
    endloop
  endfacet
  facet normal 0.982287 0.187382 0
    outer loop
      vertex -2.17931 -0.559552 13.75
      vertex -2.23226 -0.282 0
      vertex -2.23226 -0.282 13.75
    endloop
  endfacet
  facet normal 0.982287 0.187382 0
    outer loop
      vertex -2.23226 -0.282 0
      vertex -2.17931 -0.559552 13.75
      vertex -2.17931 -0.559552 0
    endloop
  endfacet
  facet normal 0.998027 0.0627914 0
    outer loop
      vertex -2.23226 -0.282 13.75
      vertex -2.25 0 0
      vertex -2.25 0 13.75
    endloop
  endfacet
  facet normal 0.998027 0.0627914 0
    outer loop
      vertex -2.25 0 0
      vertex -2.23226 -0.282 13.75
      vertex -2.23226 -0.282 0
    endloop
  endfacet
  facet normal 0.248691 0.968583 -0
    outer loop
      vertex -0.421607 -2.21015 0
      vertex -0.695288 -2.13988 13.75
      vertex -0.421607 -2.21015 13.75
    endloop
  endfacet
  facet normal 0.248691 0.968583 0
    outer loop
      vertex -0.695288 -2.13988 13.75
      vertex -0.421607 -2.21015 0
      vertex -0.695288 -2.13988 0
    endloop
  endfacet
  facet normal 0.125333 0.992115 -0
    outer loop
      vertex -0.141278 -2.24556 0
      vertex -0.421607 -2.21015 13.75
      vertex -0.141278 -2.24556 13.75
    endloop
  endfacet
  facet normal 0.125333 0.992115 0
    outer loop
      vertex -0.421607 -2.21015 13.75
      vertex -0.141278 -2.24556 0
      vertex -0.421607 -2.21015 0
    endloop
  endfacet
  facet normal -1 0 0
    outer loop
      vertex 2.25 8 0
      vertex 2.25 6 2
      vertex 2.25 8 9.75
    endloop
  endfacet
  facet normal -1 0 0
    outer loop
      vertex 2.25 2.33666 0
      vertex 2.25 6 2
      vertex 2.25 8 0
    endloop
  endfacet
  facet normal -1 -0 0
    outer loop
      vertex 2.25 6 2
      vertex 2.25 2.33666 0
      vertex 2.25 2.33666 2
    endloop
  endfacet
  facet normal -1 -0 0
    outer loop
      vertex 2.25 8 9.75
      vertex 2.25 6 2
      vertex 2.25 6 9.75
    endloop
  endfacet
  facet normal -1 0 0
    outer loop
      vertex 2.25 -2.33666 0
      vertex 2.25 -6 2
      vertex 2.25 -2.33666 2
    endloop
  endfacet
  facet normal -1 0 0
    outer loop
      vertex 2.25 -8 0
      vertex 2.25 -6 2
      vertex 2.25 -2.33666 0
    endloop
  endfacet
  facet normal -1 0 0
    outer loop
      vertex 2.25 -8 9.75
      vertex 2.25 -6 2
      vertex 2.25 -8 0
    endloop
  endfacet
  facet normal -1 0 0
    outer loop
      vertex 2.25 -6 2
      vertex 2.25 -8 9.75
      vertex 2.25 -6 9.75
    endloop
  endfacet
  facet normal -0 0 1
    outer loop
      vertex 2.25 -6 9.75
      vertex 6.45 -8 9.75
      vertex 6.45 -6 9.75
    endloop
  endfacet
  facet normal 0 0 1
    outer loop
      vertex 6.45 -8 9.75
      vertex 2.25 -6 9.75
      vertex 2.25 -8 9.75
    endloop
  endfacet
  facet normal 1 0 0
    outer loop
      vertex 6.45 -6 9.75
      vertex 6.45 -8 9.75
      vertex 6.45 -6 2
    endloop
  endfacet
  facet normal 1 0 0
    outer loop
      vertex 6.45 6 2
      vertex 6.45 8 9.75
      vertex 6.45 6 9.75
    endloop
  endfacet
  facet normal 1 0 0
    outer loop
      vertex 6.45 8 9.75
      vertex 6.45 6 2
      vertex 6.45 8 0
    endloop
  endfacet
  facet normal 1 -0 0
    outer loop
      vertex 6.45 -6 2
      vertex 6.45 8 0
      vertex 6.45 6 2
    endloop
  endfacet
  facet normal 1 0 0
    outer loop
      vertex 6.45 -6 2
      vertex 6.45 -8 0
      vertex 6.45 8 0
    endloop
  endfacet
  facet normal 1 0 0
    outer loop
      vertex 6.45 -8 0
      vertex 6.45 -6 2
      vertex 6.45 -8 9.75
    endloop
  endfacet
  facet normal 0 -1 0
    outer loop
      vertex 2.25 -8 0
      vertex 6.45 -8 9.75
      vertex 2.25 -8 9.75
    endloop
  endfacet
  facet normal 0 -1 -0
    outer loop
      vertex 6.45 -8 9.75
      vertex 2.25 -8 0
      vertex 6.45 -8 0
    endloop
  endfacet
  facet normal 0 1 -0
    outer loop
      vertex 6.45 -6 2
      vertex 2.25 -6 9.75
      vertex 6.45 -6 9.75
    endloop
  endfacet
  facet normal 0 1 0
    outer loop
      vertex 2.25 -6 9.75
      vertex 6.45 -6 2
      vertex 2.25 -6 2
    endloop
  endfacet
  facet normal 0 0 1
    outer loop
      vertex 6.45 6 2
      vertex 3.25 0 2
      vertex 6.45 -6 2
    endloop
  endfacet
  facet normal 0 0 1
    outer loop
      vertex 6.45 6 2
      vertex 3.22437 0.407332 2
      vertex 3.25 0 2
    endloop
  endfacet
  facet normal 0 0 1
    outer loop
      vertex 6.45 6 2
      vertex 3.14789 0.808242 2
      vertex 3.22437 0.407332 2
    endloop
  endfacet
  facet normal 0 0 1
    outer loop
      vertex 6.45 6 2
      vertex 3.02177 1.1964 2
      vertex 3.14789 0.808242 2
    endloop
  endfacet
  facet normal 0 0 1
    outer loop
      vertex 6.45 6 2
      vertex 2.848 1.5657 2
      vertex 3.02177 1.1964 2
    endloop
  endfacet
  facet normal 0 0 1
    outer loop
      vertex 6.45 6 2
      vertex 2.6293 1.9103 2
      vertex 2.848 1.5657 2
    endloop
  endfacet
  facet normal 0 0 1
    outer loop
      vertex 6.45 6 2
      vertex 2.36915 2.22478 2
      vertex 2.6293 1.9103 2
    endloop
  endfacet
  facet normal -0 0 1
    outer loop
      vertex 2.25 6 2
      vertex 2.36915 2.22478 2
      vertex 6.45 6 2
    endloop
  endfacet
  facet normal 0 0 1
    outer loop
      vertex 2.36915 2.22478 2
      vertex 2.25 6 2
      vertex 2.25 2.33666 2
    endloop
  endfacet
  facet normal -0 0 1
    outer loop
      vertex 3.22437 -0.407332 2
      vertex 6.45 -6 2
      vertex 3.25 0 2
    endloop
  endfacet
  facet normal -0 0 1
    outer loop
      vertex 3.14789 -0.808242 2
      vertex 6.45 -6 2
      vertex 3.22437 -0.407332 2
    endloop
  endfacet
  facet normal -0 0 1
    outer loop
      vertex 3.02177 -1.1964 2
      vertex 6.45 -6 2
      vertex 3.14789 -0.808242 2
    endloop
  endfacet
  facet normal -0 0 1
    outer loop
      vertex 2.848 -1.5657 2
      vertex 6.45 -6 2
      vertex 3.02177 -1.1964 2
    endloop
  endfacet
  facet normal -0 0 1
    outer loop
      vertex 2.6293 -1.9103 2
      vertex 6.45 -6 2
      vertex 2.848 -1.5657 2
    endloop
  endfacet
  facet normal -0 0 1
    outer loop
      vertex 2.36915 -2.22478 2
      vertex 6.45 -6 2
      vertex 2.6293 -1.9103 2
    endloop
  endfacet
  facet normal 0 0 1
    outer loop
      vertex 2.25 -6 2
      vertex 2.36915 -2.22478 2
      vertex 2.25 -2.33666 2
    endloop
  endfacet
  facet normal 0 0 1
    outer loop
      vertex 2.36915 -2.22478 2
      vertex 2.25 -6 2
      vertex 6.45 -6 2
    endloop
  endfacet
  facet normal 0 -1 0
    outer loop
      vertex 2.25 6 2
      vertex 6.45 6 9.75
      vertex 2.25 6 9.75
    endloop
  endfacet
  facet normal 0 -1 -0
    outer loop
      vertex 6.45 6 9.75
      vertex 2.25 6 2
      vertex 6.45 6 2
    endloop
  endfacet
  facet normal -0 0 1
    outer loop
      vertex 2.25 8 9.75
      vertex 6.45 6 9.75
      vertex 6.45 8 9.75
    endloop
  endfacet
  facet normal 0 0 1
    outer loop
      vertex 6.45 6 9.75
      vertex 2.25 8 9.75
      vertex 2.25 6 9.75
    endloop
  endfacet
  facet normal 0 1 -0
    outer loop
      vertex 6.45 8 0
      vertex 2.25 8 9.75
      vertex 6.45 8 9.75
    endloop
  endfacet
  facet normal 0 1 0
    outer loop
      vertex 2.25 8 9.75
      vertex 6.45 8 0
      vertex 2.25 8 0
    endloop
  endfacet
endsolid OpenSCAD_Model
