solid OpenSCAD_Model
  facet normal -1 0 0
    outer loop
      vertex 0 16.5 0
      vertex 0 10.5 3
      vertex 0 16.5 8
    endloop
  endfacet
  facet normal -1 0 0
    outer loop
      vertex 0 16.5 0
      vertex 0 6 3
      vertex 0 10.5 3
    endloop
  endfacet
  facet normal -1 0 0
    outer loop
      vertex 0 0 0
      vertex 0 6 3
      vertex 0 16.5 0
    endloop
  endfacet
  facet normal -1 0 0
    outer loop
      vertex 0 0 8
      vertex 0 6 3
      vertex 0 0 0
    endloop
  endfacet
  facet normal -1 0 0
    outer loop
      vertex 0 6 3
      vertex 0 0 8
      vertex 0 6 8
    endloop
  endfacet
  facet normal -1 -0 0
    outer loop
      vertex 0 16.5 8
      vertex 0 10.5 3
      vertex 0 10.5 8
    endloop
  endfacet
  facet normal -0 0 1
    outer loop
      vertex 6 3 3
      vertex 12 0 3
      vertex 12 3 3
    endloop
  endfacet
  facet normal 0 0 1
    outer loop
      vertex 12 0 3
      vertex 6 3 3
      vertex 6 0 3
    endloop
  endfacet
  facet normal -0 0 1
    outer loop
      vertex 15 10.5 3
      vertex 18 6 3
      vertex 18 10.5 3
    endloop
  endfacet
  facet normal 0 0 1
    outer loop
      vertex 18 6 3
      vertex 15 10.5 3
      vertex 15 6 3
    endloop
  endfacet
  facet normal -0 0 1
    outer loop
      vertex 6 16.5 3
      vertex 12 13.5 3
      vertex 12 16.5 3
    endloop
  endfacet
  facet normal 0 0 1
    outer loop
      vertex 12 13.5 3
      vertex 6 16.5 3
      vertex 6 13.5 3
    endloop
  endfacet
  facet normal -0 0 1
    outer loop
      vertex 0 10.5 3
      vertex 3 6 3
      vertex 3 10.5 3
    endloop
  endfacet
  facet normal 0 0 1
    outer loop
      vertex 3 6 3
      vertex 0 10.5 3
      vertex 0 6 3
    endloop
  endfacet
  facet normal 1 0 0
    outer loop
      vertex 18 6 8
      vertex 18 0 8
      vertex 18 6 3
    endloop
  endfacet
  facet normal 1 0 0
    outer loop
      vertex 18 10.5 3
      vertex 18 16.5 8
      vertex 18 10.5 8
    endloop
  endfacet
  facet normal 1 0 0
    outer loop
      vertex 18 16.5 8
      vertex 18 10.5 3
      vertex 18 16.5 0
    endloop
  endfacet
  facet normal 1 -0 0
    outer loop
      vertex 18 6 3
      vertex 18 16.5 0
      vertex 18 10.5 3
    endloop
  endfacet
  facet normal 1 0 0
    outer loop
      vertex 18 6 3
      vertex 18 0 0
      vertex 18 16.5 0
    endloop
  endfacet
  facet normal 1 0 0
    outer loop
      vertex 18 0 0
      vertex 18 6 3
      vertex 18 0 8
    endloop
  endfacet
  facet normal 0 1 0
    outer loop
      vertex 18 16.5 8
      vertex 12 16.5 3
      vertex 12 16.5 8
    endloop
  endfacet
  facet normal 0 1 0
    outer loop
      vertex 12 16.5 3
      vertex 18 16.5 0
      vertex 6 16.5 3
    endloop
  endfacet
  facet normal 0 1 -0
    outer loop
      vertex 18 16.5 0
      vertex 12 16.5 3
      vertex 18 16.5 8
    endloop
  endfacet
  facet normal 0 1 -0
    outer loop
      vertex 6 16.5 3
      vertex 0 16.5 8
      vertex 6 16.5 8
    endloop
  endfacet
  facet normal 0 1 0
    outer loop
      vertex 6 16.5 3
      vertex 0 16.5 0
      vertex 0 16.5 8
    endloop
  endfacet
  facet normal 0 1 0
    outer loop
      vertex 0 16.5 0
      vertex 6 16.5 3
      vertex 18 16.5 0
    endloop
  endfacet
  facet normal 0 0 -1
    outer loop
      vertex 18 0 0
      vertex 15 3 0
      vertex 18 16.5 0
    endloop
  endfacet
  facet normal 0 0 -1
    outer loop
      vertex 18 0 0
      vertex 3 3 0
      vertex 15 3 0
    endloop
  endfacet
  facet normal -0 0 -1
    outer loop
      vertex 3 3 0
      vertex 0 0 0
      vertex 3 13.5 0
    endloop
  endfacet
  facet normal 0 0 -1
    outer loop
      vertex 0 0 0
      vertex 3 3 0
      vertex 18 0 0
    endloop
  endfacet
  facet normal 0 0 -1
    outer loop
      vertex 15 13.5 0
      vertex 18 16.5 0
      vertex 15 3 0
    endloop
  endfacet
  facet normal 0 0 -1
    outer loop
      vertex 3 13.5 0
      vertex 18 16.5 0
      vertex 15 13.5 0
    endloop
  endfacet
  facet normal 0 0 -1
    outer loop
      vertex 3 13.5 0
      vertex 0 16.5 0
      vertex 18 16.5 0
    endloop
  endfacet
  facet normal 0 0 -1
    outer loop
      vertex 0 16.5 0
      vertex 3 13.5 0
      vertex 0 0 0
    endloop
  endfacet
  facet normal 0 -1 0
    outer loop
      vertex 0 0 8
      vertex 6 0 3
      vertex 6 0 8
    endloop
  endfacet
  facet normal 0 -1 -0
    outer loop
      vertex 6 0 3
      vertex 0 0 0
      vertex 12 0 3
    endloop
  endfacet
  facet normal 0 -1 0
    outer loop
      vertex 0 0 0
      vertex 6 0 3
      vertex 0 0 8
    endloop
  endfacet
  facet normal 0 -1 0
    outer loop
      vertex 12 0 3
      vertex 18 0 8
      vertex 12 0 8
    endloop
  endfacet
  facet normal 0 -1 0
    outer loop
      vertex 12 0 3
      vertex 18 0 0
      vertex 18 0 8
    endloop
  endfacet
  facet normal 0 -1 0
    outer loop
      vertex 18 0 0
      vertex 12 0 3
      vertex 0 0 0
    endloop
  endfacet
  facet normal 1 0 0
    outer loop
      vertex 3 6 8
      vertex 3 3 8
      vertex 3 6 3
    endloop
  endfacet
  facet normal 1 0 0
    outer loop
      vertex 3 10.5 3
      vertex 3 13.5 8
      vertex 3 10.5 8
    endloop
  endfacet
  facet normal 1 0 0
    outer loop
      vertex 3 13.5 8
      vertex 3 10.5 3
      vertex 3 13.5 0
    endloop
  endfacet
  facet normal 1 -0 0
    outer loop
      vertex 3 6 3
      vertex 3 13.5 0
      vertex 3 10.5 3
    endloop
  endfacet
  facet normal 1 0 0
    outer loop
      vertex 3 6 3
      vertex 3 3 0
      vertex 3 13.5 0
    endloop
  endfacet
  facet normal 1 0 0
    outer loop
      vertex 3 3 0
      vertex 3 6 3
      vertex 3 3 8
    endloop
  endfacet
  facet normal -1 0 0
    outer loop
      vertex 15 13.5 0
      vertex 15 10.5 3
      vertex 15 13.5 8
    endloop
  endfacet
  facet normal -1 0 0
    outer loop
      vertex 15 13.5 0
      vertex 15 6 3
      vertex 15 10.5 3
    endloop
  endfacet
  facet normal -1 0 0
    outer loop
      vertex 15 3 0
      vertex 15 6 3
      vertex 15 13.5 0
    endloop
  endfacet
  facet normal -1 0 0
    outer loop
      vertex 15 3 8
      vertex 15 6 3
      vertex 15 3 0
    endloop
  endfacet
  facet normal -1 0 0
    outer loop
      vertex 15 6 3
      vertex 15 3 8
      vertex 15 6 8
    endloop
  endfacet
  facet normal -1 -0 0
    outer loop
      vertex 15 13.5 8
      vertex 15 10.5 3
      vertex 15 10.5 8
    endloop
  endfacet
  facet normal 0 1 0
    outer loop
      vertex 15 3 8
      vertex 12 3 3
      vertex 12 3 8
    endloop
  endfacet
  facet normal 0 1 0
    outer loop
      vertex 12 3 3
      vertex 15 3 0
      vertex 6 3 3
    endloop
  endfacet
  facet normal 0 1 -0
    outer loop
      vertex 15 3 0
      vertex 12 3 3
      vertex 15 3 8
    endloop
  endfacet
  facet normal 0 1 -0
    outer loop
      vertex 6 3 3
      vertex 3 3 8
      vertex 6 3 8
    endloop
  endfacet
  facet normal 0 1 0
    outer loop
      vertex 6 3 3
      vertex 3 3 0
      vertex 3 3 8
    endloop
  endfacet
  facet normal 0 1 0
    outer loop
      vertex 3 3 0
      vertex 6 3 3
      vertex 15 3 0
    endloop
  endfacet
  facet normal 0 -1 0
    outer loop
      vertex 3 13.5 8
      vertex 6 13.5 3
      vertex 6 13.5 8
    endloop
  endfacet
  facet normal 0 -1 -0
    outer loop
      vertex 6 13.5 3
      vertex 3 13.5 0
      vertex 12 13.5 3
    endloop
  endfacet
  facet normal 0 -1 0
    outer loop
      vertex 3 13.5 0
      vertex 6 13.5 3
      vertex 3 13.5 8
    endloop
  endfacet
  facet normal 0 -1 0
    outer loop
      vertex 12 13.5 3
      vertex 15 13.5 8
      vertex 12 13.5 8
    endloop
  endfacet
  facet normal 0 -1 0
    outer loop
      vertex 12 13.5 3
      vertex 15 13.5 0
      vertex 15 13.5 8
    endloop
  endfacet
  facet normal 0 -1 0
    outer loop
      vertex 15 13.5 0
      vertex 12 13.5 3
      vertex 3 13.5 0
    endloop
  endfacet
  facet normal 0 0 1
    outer loop
      vertex 3 6 8
      vertex 0 6 8
      vertex 3 3 8
    endloop
  endfacet
  facet normal -0 0 1
    outer loop
      vertex 3 3 8
      vertex 6 0 8
      vertex 6 3 8
    endloop
  endfacet
  facet normal 0 0 1
    outer loop
      vertex 0 0 8
      vertex 3 3 8
      vertex 0 6 8
    endloop
  endfacet
  facet normal 0 0 1
    outer loop
      vertex 3 3 8
      vertex 0 0 8
      vertex 6 0 8
    endloop
  endfacet
  facet normal 1 -0 0
    outer loop
      vertex 6 0 8
      vertex 6 3 3
      vertex 6 3 8
    endloop
  endfacet
  facet normal 1 0 0
    outer loop
      vertex 6 3 3
      vertex 6 0 8
      vertex 6 0 3
    endloop
  endfacet
  facet normal 0 1 -0
    outer loop
      vertex 3 6 3
      vertex 0 6 8
      vertex 3 6 8
    endloop
  endfacet
  facet normal 0 1 0
    outer loop
      vertex 0 6 8
      vertex 3 6 3
      vertex 0 6 3
    endloop
  endfacet
  facet normal 0 0 1
    outer loop
      vertex 6 16.5 8
      vertex 3 13.5 8
      vertex 6 13.5 8
    endloop
  endfacet
  facet normal -0 0 1
    outer loop
      vertex 0 16.5 8
      vertex 3 13.5 8
      vertex 6 16.5 8
    endloop
  endfacet
  facet normal 0 0 1
    outer loop
      vertex 0 10.5 8
      vertex 3 13.5 8
      vertex 0 16.5 8
    endloop
  endfacet
  facet normal 0 0 1
    outer loop
      vertex 3 13.5 8
      vertex 0 10.5 8
      vertex 3 10.5 8
    endloop
  endfacet
  facet normal 1 -0 0
    outer loop
      vertex 6 13.5 8
      vertex 6 16.5 3
      vertex 6 16.5 8
    endloop
  endfacet
  facet normal 1 0 0
    outer loop
      vertex 6 16.5 3
      vertex 6 13.5 8
      vertex 6 13.5 3
    endloop
  endfacet
  facet normal 0 -1 0
    outer loop
      vertex 0 10.5 3
      vertex 3 10.5 8
      vertex 0 10.5 8
    endloop
  endfacet
  facet normal 0 -1 -0
    outer loop
      vertex 3 10.5 8
      vertex 0 10.5 3
      vertex 3 10.5 3
    endloop
  endfacet
  facet normal -1 0 0
    outer loop
      vertex 12 13.5 3
      vertex 12 16.5 8
      vertex 12 16.5 3
    endloop
  endfacet
  facet normal -1 -0 0
    outer loop
      vertex 12 16.5 8
      vertex 12 13.5 3
      vertex 12 13.5 8
    endloop
  endfacet
  facet normal 0 0 1
    outer loop
      vertex 18 16.5 8
      vertex 15 13.5 8
      vertex 18 10.5 8
    endloop
  endfacet
  facet normal -0 0 1
    outer loop
      vertex 12 16.5 8
      vertex 15 13.5 8
      vertex 18 16.5 8
    endloop
  endfacet
  facet normal 0 0 1
    outer loop
      vertex 15 13.5 8
      vertex 12 16.5 8
      vertex 12 13.5 8
    endloop
  endfacet
  facet normal 0 0 1
    outer loop
      vertex 18 10.5 8
      vertex 15 13.5 8
      vertex 15 10.5 8
    endloop
  endfacet
  facet normal 0 -1 0
    outer loop
      vertex 15 10.5 3
      vertex 18 10.5 8
      vertex 15 10.5 8
    endloop
  endfacet
  facet normal 0 -1 -0
    outer loop
      vertex 18 10.5 8
      vertex 15 10.5 3
      vertex 18 10.5 3
    endloop
  endfacet
  facet normal -1 0 0
    outer loop
      vertex 12 0 3
      vertex 12 3 8
      vertex 12 3 3
    endloop
  endfacet
  facet normal -1 -0 0
    outer loop
      vertex 12 3 8
      vertex 12 0 3
      vertex 12 0 8
    endloop
  endfacet
  facet normal 0 0 1
    outer loop
      vertex 15 3 8
      vertex 18 6 8
      vertex 15 6 8
    endloop
  endfacet
  facet normal 0 0 1
    outer loop
      vertex 18 6 8
      vertex 15 3 8
      vertex 18 0 8
    endloop
  endfacet
  facet normal 0 0 1
    outer loop
      vertex 12 0 8
      vertex 15 3 8
      vertex 12 3 8
    endloop
  endfacet
  facet normal 0 0 1
    outer loop
      vertex 15 3 8
      vertex 12 0 8
      vertex 18 0 8
    endloop
  endfacet
  facet normal 0 1 -0
    outer loop
      vertex 18 6 3
      vertex 15 6 8
      vertex 18 6 8
    endloop
  endfacet
  facet normal 0 1 0
    outer loop
      vertex 15 6 8
      vertex 18 6 3
      vertex 15 6 3
    endloop
  endfacet
endsolid OpenSCAD_Model
