solid OpenSCAD_Model
  facet normal -1 0 0
    outer loop
      vertex 0 16.5 0
      vertex 0 10.5 3
      vertex 0 16.5 6
    endloop
  endfacet
  facet normal -1 0 0
    outer loop
      vertex 0 16.5 0
      vertex 0 6 3
      vertex 0 10.5 3
    endloop
  endfacet
  facet normal -1 0 0
    outer loop
      vertex 0 0 0
      vertex 0 6 3
      vertex 0 16.5 0
    endloop
  endfacet
  facet normal -1 0 0
    outer loop
      vertex 0 0 6
      vertex 0 6 3
      vertex 0 0 0
    endloop
  endfacet
  facet normal -1 0 0
    outer loop
      vertex 0 6 3
      vertex 0 0 6
      vertex 0 6 6
    endloop
  endfacet
  facet normal -1 -0 0
    outer loop
      vertex 0 16.5 6
      vertex 0 10.5 3
      vertex 0 10.5 6
    endloop
  endfacet
  facet normal 0 0 -1
    outer loop
      vertex 11 3 3
      vertex 14 6 3
      vertex 14 3 3
    endloop
  endfacet
  facet normal -0 0 -1
    outer loop
      vertex 14 6 3
      vertex 11 3 3
      vertex 11 6 3
    endloop
  endfacet
  facet normal -0 0 1
    outer loop
      vertex 6 3 3
      vertex 11 0 3
      vertex 11 3 3
    endloop
  endfacet
  facet normal 0 0 1
    outer loop
      vertex 11 0 3
      vertex 6 3 3
      vertex 6 0 3
    endloop
  endfacet
  facet normal -0 0 1
    outer loop
      vertex 14 10.5 3
      vertex 17 6 3
      vertex 17 10.5 3
    endloop
  endfacet
  facet normal 0 0 1
    outer loop
      vertex 17 6 3
      vertex 14 10.5 3
      vertex 14 6 3
    endloop
  endfacet
  facet normal -0 0 1
    outer loop
      vertex 6 16.5 3
      vertex 11 13.5 3
      vertex 11 16.5 3
    endloop
  endfacet
  facet normal 0 0 1
    outer loop
      vertex 11 13.5 3
      vertex 6 16.5 3
      vertex 6 13.5 3
    endloop
  endfacet
  facet normal 0 0 -1
    outer loop
      vertex 11 10.5 3
      vertex 14 13.5 3
      vertex 14 10.5 3
    endloop
  endfacet
  facet normal -0 0 -1
    outer loop
      vertex 14 13.5 3
      vertex 11 10.5 3
      vertex 11 13.5 3
    endloop
  endfacet
  facet normal -0 0 1
    outer loop
      vertex 0 10.5 3
      vertex 3 6 3
      vertex 3 10.5 3
    endloop
  endfacet
  facet normal 0 0 1
    outer loop
      vertex 3 6 3
      vertex 0 10.5 3
      vertex 0 6 3
    endloop
  endfacet
  facet normal 0 0 -1
    outer loop
      vertex 3 10.5 3
      vertex 6 13.5 3
      vertex 6 10.5 3
    endloop
  endfacet
  facet normal -0 0 -1
    outer loop
      vertex 6 13.5 3
      vertex 3 10.5 3
      vertex 3 13.5 3
    endloop
  endfacet
  facet normal 0 0 -1
    outer loop
      vertex 3 3 3
      vertex 6 6 3
      vertex 6 3 3
    endloop
  endfacet
  facet normal -0 0 -1
    outer loop
      vertex 6 6 3
      vertex 3 3 3
      vertex 3 6 3
    endloop
  endfacet
  facet normal 1 0 0
    outer loop
      vertex 17 6 6
      vertex 17 0 6
      vertex 17 6 3
    endloop
  endfacet
  facet normal 1 0 0
    outer loop
      vertex 17 10.5 3
      vertex 17 16.5 6
      vertex 17 10.5 6
    endloop
  endfacet
  facet normal 1 0 0
    outer loop
      vertex 17 16.5 6
      vertex 17 10.5 3
      vertex 17 16.5 0
    endloop
  endfacet
  facet normal 1 -0 0
    outer loop
      vertex 17 6 3
      vertex 17 16.5 0
      vertex 17 10.5 3
    endloop
  endfacet
  facet normal 1 0 0
    outer loop
      vertex 17 6 3
      vertex 17 0 0
      vertex 17 16.5 0
    endloop
  endfacet
  facet normal 1 0 0
    outer loop
      vertex 17 0 0
      vertex 17 6 3
      vertex 17 0 6
    endloop
  endfacet
  facet normal 0 1 0
    outer loop
      vertex 17 16.5 6
      vertex 11 16.5 3
      vertex 11 16.5 6
    endloop
  endfacet
  facet normal 0 1 0
    outer loop
      vertex 11 16.5 3
      vertex 17 16.5 0
      vertex 6 16.5 3
    endloop
  endfacet
  facet normal 0 1 -0
    outer loop
      vertex 17 16.5 0
      vertex 11 16.5 3
      vertex 17 16.5 6
    endloop
  endfacet
  facet normal 0 1 -0
    outer loop
      vertex 6 16.5 3
      vertex 0 16.5 6
      vertex 6 16.5 6
    endloop
  endfacet
  facet normal 0 1 0
    outer loop
      vertex 6 16.5 3
      vertex 0 16.5 0
      vertex 0 16.5 6
    endloop
  endfacet
  facet normal 0 1 0
    outer loop
      vertex 0 16.5 0
      vertex 6 16.5 3
      vertex 17 16.5 0
    endloop
  endfacet
  facet normal 0 0 -1
    outer loop
      vertex 17 0 0
      vertex 14 3 0
      vertex 17 16.5 0
    endloop
  endfacet
  facet normal 0 0 -1
    outer loop
      vertex 17 0 0
      vertex 3 3 0
      vertex 14 3 0
    endloop
  endfacet
  facet normal -0 0 -1
    outer loop
      vertex 3 3 0
      vertex 0 0 0
      vertex 3 13.5 0
    endloop
  endfacet
  facet normal 0 0 -1
    outer loop
      vertex 0 0 0
      vertex 3 3 0
      vertex 17 0 0
    endloop
  endfacet
  facet normal 0 0 -1
    outer loop
      vertex 14 13.5 0
      vertex 17 16.5 0
      vertex 14 3 0
    endloop
  endfacet
  facet normal 0 0 -1
    outer loop
      vertex 3 13.5 0
      vertex 17 16.5 0
      vertex 14 13.5 0
    endloop
  endfacet
  facet normal 0 0 -1
    outer loop
      vertex 3 13.5 0
      vertex 0 16.5 0
      vertex 17 16.5 0
    endloop
  endfacet
  facet normal 0 0 -1
    outer loop
      vertex 0 16.5 0
      vertex 3 13.5 0
      vertex 0 0 0
    endloop
  endfacet
  facet normal 0 -1 0
    outer loop
      vertex 0 0 6
      vertex 6 0 3
      vertex 6 0 6
    endloop
  endfacet
  facet normal 0 -1 -0
    outer loop
      vertex 6 0 3
      vertex 0 0 0
      vertex 11 0 3
    endloop
  endfacet
  facet normal 0 -1 0
    outer loop
      vertex 0 0 0
      vertex 6 0 3
      vertex 0 0 6
    endloop
  endfacet
  facet normal 0 -1 0
    outer loop
      vertex 11 0 3
      vertex 17 0 6
      vertex 11 0 6
    endloop
  endfacet
  facet normal 0 -1 0
    outer loop
      vertex 11 0 3
      vertex 17 0 0
      vertex 17 0 6
    endloop
  endfacet
  facet normal 0 -1 0
    outer loop
      vertex 17 0 0
      vertex 11 0 3
      vertex 0 0 0
    endloop
  endfacet
  facet normal 1 -0 0
    outer loop
      vertex 3 10.5 3
      vertex 3 13.5 0
      vertex 3 13.5 3
    endloop
  endfacet
  facet normal 1 -0 0
    outer loop
      vertex 3 6 3
      vertex 3 13.5 0
      vertex 3 10.5 3
    endloop
  endfacet
  facet normal 1 0 0
    outer loop
      vertex 3 3 0
      vertex 3 6 3
      vertex 3 3 3
    endloop
  endfacet
  facet normal 1 0 0
    outer loop
      vertex 3 6 3
      vertex 3 3 0
      vertex 3 13.5 0
    endloop
  endfacet
  facet normal -1 0 0
    outer loop
      vertex 14 13.5 0
      vertex 14 10.5 3
      vertex 14 13.5 3
    endloop
  endfacet
  facet normal -1 0 0
    outer loop
      vertex 14 13.5 0
      vertex 14 6 3
      vertex 14 10.5 3
    endloop
  endfacet
  facet normal -1 0 0
    outer loop
      vertex 14 3 0
      vertex 14 6 3
      vertex 14 13.5 0
    endloop
  endfacet
  facet normal -1 -0 0
    outer loop
      vertex 14 6 3
      vertex 14 3 0
      vertex 14 3 3
    endloop
  endfacet
  facet normal 0 1 -0
    outer loop
      vertex 14 3 0
      vertex 11 3 3
      vertex 14 3 3
    endloop
  endfacet
  facet normal 0 1 0
    outer loop
      vertex 11 3 3
      vertex 14 3 0
      vertex 6 3 3
    endloop
  endfacet
  facet normal 0 1 0
    outer loop
      vertex 3 3 0
      vertex 6 3 3
      vertex 14 3 0
    endloop
  endfacet
  facet normal 0 1 0
    outer loop
      vertex 6 3 3
      vertex 3 3 0
      vertex 3 3 3
    endloop
  endfacet
  facet normal 0 -1 0
    outer loop
      vertex 3 13.5 0
      vertex 6 13.5 3
      vertex 3 13.5 3
    endloop
  endfacet
  facet normal 0 -1 -0
    outer loop
      vertex 6 13.5 3
      vertex 3 13.5 0
      vertex 11 13.5 3
    endloop
  endfacet
  facet normal 0 -1 0
    outer loop
      vertex 14 13.5 0
      vertex 11 13.5 3
      vertex 3 13.5 0
    endloop
  endfacet
  facet normal 0 -1 0
    outer loop
      vertex 11 13.5 3
      vertex 14 13.5 0
      vertex 14 13.5 3
    endloop
  endfacet
  facet normal -0 0 1
    outer loop
      vertex 0 6 6
      vertex 6 0 6
      vertex 6 6 6
    endloop
  endfacet
  facet normal 0 0 1
    outer loop
      vertex 6 0 6
      vertex 0 6 6
      vertex 0 0 6
    endloop
  endfacet
  facet normal 1 0 0
    outer loop
      vertex 6 6 6
      vertex 6 3 3
      vertex 6 6 3
    endloop
  endfacet
  facet normal 1 -0 0
    outer loop
      vertex 6 0 6
      vertex 6 3 3
      vertex 6 6 6
    endloop
  endfacet
  facet normal 1 0 0
    outer loop
      vertex 6 3 3
      vertex 6 0 6
      vertex 6 0 3
    endloop
  endfacet
  facet normal 0 1 0
    outer loop
      vertex 3 6 3
      vertex 6 6 6
      vertex 6 6 3
    endloop
  endfacet
  facet normal 0 1 0
    outer loop
      vertex 6 6 6
      vertex 3 6 3
      vertex 0 6 6
    endloop
  endfacet
  facet normal 0 1 0
    outer loop
      vertex 0 6 6
      vertex 3 6 3
      vertex 0 6 3
    endloop
  endfacet
  facet normal -0 0 1
    outer loop
      vertex 0 16.5 6
      vertex 6 10.5 6
      vertex 6 16.5 6
    endloop
  endfacet
  facet normal 0 0 1
    outer loop
      vertex 6 10.5 6
      vertex 0 16.5 6
      vertex 0 10.5 6
    endloop
  endfacet
  facet normal 1 0 0
    outer loop
      vertex 6 16.5 6
      vertex 6 13.5 3
      vertex 6 16.5 3
    endloop
  endfacet
  facet normal 1 -0 0
    outer loop
      vertex 6 10.5 6
      vertex 6 13.5 3
      vertex 6 16.5 6
    endloop
  endfacet
  facet normal 1 0 0
    outer loop
      vertex 6 13.5 3
      vertex 6 10.5 6
      vertex 6 10.5 3
    endloop
  endfacet
  facet normal 0 -1 0
    outer loop
      vertex 3 10.5 3
      vertex 0 10.5 6
      vertex 0 10.5 3
    endloop
  endfacet
  facet normal 0 -1 0
    outer loop
      vertex 0 10.5 6
      vertex 3 10.5 3
      vertex 6 10.5 6
    endloop
  endfacet
  facet normal 0 -1 -0
    outer loop
      vertex 6 10.5 6
      vertex 3 10.5 3
      vertex 6 10.5 3
    endloop
  endfacet
  facet normal -1 0 0
    outer loop
      vertex 11 13.5 3
      vertex 11 16.5 6
      vertex 11 16.5 3
    endloop
  endfacet
  facet normal -1 0 0
    outer loop
      vertex 11 10.5 6
      vertex 11 13.5 3
      vertex 11 10.5 3
    endloop
  endfacet
  facet normal -1 0 0
    outer loop
      vertex 11 13.5 3
      vertex 11 10.5 6
      vertex 11 16.5 6
    endloop
  endfacet
  facet normal -0 0 1
    outer loop
      vertex 11 16.5 6
      vertex 17 10.5 6
      vertex 17 16.5 6
    endloop
  endfacet
  facet normal 0 0 1
    outer loop
      vertex 17 10.5 6
      vertex 11 16.5 6
      vertex 11 10.5 6
    endloop
  endfacet
  facet normal 0 -1 0
    outer loop
      vertex 14 10.5 3
      vertex 11 10.5 6
      vertex 11 10.5 3
    endloop
  endfacet
  facet normal 0 -1 0
    outer loop
      vertex 11 10.5 6
      vertex 14 10.5 3
      vertex 17 10.5 6
    endloop
  endfacet
  facet normal 0 -1 -0
    outer loop
      vertex 17 10.5 6
      vertex 14 10.5 3
      vertex 17 10.5 3
    endloop
  endfacet
  facet normal -1 0 0
    outer loop
      vertex 11 3 3
      vertex 11 6 6
      vertex 11 6 3
    endloop
  endfacet
  facet normal -1 0 0
    outer loop
      vertex 11 0 6
      vertex 11 3 3
      vertex 11 0 3
    endloop
  endfacet
  facet normal -1 0 0
    outer loop
      vertex 11 3 3
      vertex 11 0 6
      vertex 11 6 6
    endloop
  endfacet
  facet normal -0 0 1
    outer loop
      vertex 11 6 6
      vertex 17 0 6
      vertex 17 6 6
    endloop
  endfacet
  facet normal 0 0 1
    outer loop
      vertex 17 0 6
      vertex 11 6 6
      vertex 11 0 6
    endloop
  endfacet
  facet normal 0 1 0
    outer loop
      vertex 14 6 3
      vertex 17 6 6
      vertex 17 6 3
    endloop
  endfacet
  facet normal 0 1 0
    outer loop
      vertex 17 6 6
      vertex 14 6 3
      vertex 11 6 6
    endloop
  endfacet
  facet normal 0 1 0
    outer loop
      vertex 11 6 6
      vertex 14 6 3
      vertex 11 6 3
    endloop
  endfacet
endsolid OpenSCAD_Model
