solid OpenSCAD_Model
  facet normal -1 0 0
    outer loop
      vertex 0 12.5 0
      vertex 0 10.5 3
      vertex 0 12.5 6
    endloop
  endfacet
  facet normal -1 0 0
    outer loop
      vertex 0 12.5 0
      vertex 0 2 3
      vertex 0 10.5 3
    endloop
  endfacet
  facet normal -1 0 0
    outer loop
      vertex 0 0 0
      vertex 0 2 3
      vertex 0 12.5 0
    endloop
  endfacet
  facet normal -1 0 0
    outer loop
      vertex 0 0 6
      vertex 0 2 3
      vertex 0 0 0
    endloop
  endfacet
  facet normal -1 0 0
    outer loop
      vertex 0 2 3
      vertex 0 0 6
      vertex 0 2 6
    endloop
  endfacet
  facet normal -1 -0 0
    outer loop
      vertex 0 12.5 6
      vertex 0 10.5 3
      vertex 0 10.5 6
    endloop
  endfacet
  facet normal 0 0 -1
    outer loop
      vertex 11.5 1 3
      vertex 12.5 2 3
      vertex 12.5 1 3
    endloop
  endfacet
  facet normal -0 0 -1
    outer loop
      vertex 12.5 2 3
      vertex 11.5 1 3
      vertex 11.5 2 3
    endloop
  endfacet
  facet normal -0 0 1
    outer loop
      vertex 2 1 3
      vertex 11.5 0 3
      vertex 11.5 1 3
    endloop
  endfacet
  facet normal 0 0 1
    outer loop
      vertex 11.5 0 3
      vertex 2 1 3
      vertex 2 0 3
    endloop
  endfacet
  facet normal -0 0 1
    outer loop
      vertex 12.5 10.5 3
      vertex 13.5 2 3
      vertex 13.5 10.5 3
    endloop
  endfacet
  facet normal 0 0 1
    outer loop
      vertex 13.5 2 3
      vertex 12.5 10.5 3
      vertex 12.5 2 3
    endloop
  endfacet
  facet normal -0 0 1
    outer loop
      vertex 2 12.5 3
      vertex 11.5 11.5 3
      vertex 11.5 12.5 3
    endloop
  endfacet
  facet normal 0 0 1
    outer loop
      vertex 11.5 11.5 3
      vertex 2 12.5 3
      vertex 2 11.5 3
    endloop
  endfacet
  facet normal 0 0 -1
    outer loop
      vertex 11.5 10.5 3
      vertex 12.5 11.5 3
      vertex 12.5 10.5 3
    endloop
  endfacet
  facet normal -0 0 -1
    outer loop
      vertex 12.5 11.5 3
      vertex 11.5 10.5 3
      vertex 11.5 11.5 3
    endloop
  endfacet
  facet normal -0 0 1
    outer loop
      vertex 0 10.5 3
      vertex 1 2 3
      vertex 1 10.5 3
    endloop
  endfacet
  facet normal 0 0 1
    outer loop
      vertex 1 2 3
      vertex 0 10.5 3
      vertex 0 2 3
    endloop
  endfacet
  facet normal 0 0 -1
    outer loop
      vertex 1 10.5 3
      vertex 2 11.5 3
      vertex 2 10.5 3
    endloop
  endfacet
  facet normal -0 0 -1
    outer loop
      vertex 2 11.5 3
      vertex 1 10.5 3
      vertex 1 11.5 3
    endloop
  endfacet
  facet normal 0 0 -1
    outer loop
      vertex 1 1 3
      vertex 2 2 3
      vertex 2 1 3
    endloop
  endfacet
  facet normal -0 0 -1
    outer loop
      vertex 2 2 3
      vertex 1 1 3
      vertex 1 2 3
    endloop
  endfacet
  facet normal 1 0 0
    outer loop
      vertex 13.5 2 6
      vertex 13.5 0 6
      vertex 13.5 2 3
    endloop
  endfacet
  facet normal 1 0 0
    outer loop
      vertex 13.5 10.5 3
      vertex 13.5 12.5 6
      vertex 13.5 10.5 6
    endloop
  endfacet
  facet normal 1 0 0
    outer loop
      vertex 13.5 12.5 6
      vertex 13.5 10.5 3
      vertex 13.5 12.5 0
    endloop
  endfacet
  facet normal 1 -0 0
    outer loop
      vertex 13.5 2 3
      vertex 13.5 12.5 0
      vertex 13.5 10.5 3
    endloop
  endfacet
  facet normal 1 0 0
    outer loop
      vertex 13.5 2 3
      vertex 13.5 0 0
      vertex 13.5 12.5 0
    endloop
  endfacet
  facet normal 1 0 0
    outer loop
      vertex 13.5 0 0
      vertex 13.5 2 3
      vertex 13.5 0 6
    endloop
  endfacet
  facet normal 0 1 0
    outer loop
      vertex 13.5 12.5 6
      vertex 11.5 12.5 3
      vertex 11.5 12.5 6
    endloop
  endfacet
  facet normal 0 1 0
    outer loop
      vertex 11.5 12.5 3
      vertex 13.5 12.5 0
      vertex 2 12.5 3
    endloop
  endfacet
  facet normal 0 1 -0
    outer loop
      vertex 13.5 12.5 0
      vertex 11.5 12.5 3
      vertex 13.5 12.5 6
    endloop
  endfacet
  facet normal 0 1 -0
    outer loop
      vertex 2 12.5 3
      vertex 0 12.5 6
      vertex 2 12.5 6
    endloop
  endfacet
  facet normal 0 1 0
    outer loop
      vertex 2 12.5 3
      vertex 0 12.5 0
      vertex 0 12.5 6
    endloop
  endfacet
  facet normal 0 1 0
    outer loop
      vertex 0 12.5 0
      vertex 2 12.5 3
      vertex 13.5 12.5 0
    endloop
  endfacet
  facet normal 0 0 -1
    outer loop
      vertex 13.5 0 0
      vertex 12.5 1 0
      vertex 13.5 12.5 0
    endloop
  endfacet
  facet normal 0 0 -1
    outer loop
      vertex 13.5 0 0
      vertex 1 1 0
      vertex 12.5 1 0
    endloop
  endfacet
  facet normal -0 0 -1
    outer loop
      vertex 1 1 0
      vertex 0 0 0
      vertex 1 11.5 0
    endloop
  endfacet
  facet normal 0 0 -1
    outer loop
      vertex 0 0 0
      vertex 1 1 0
      vertex 13.5 0 0
    endloop
  endfacet
  facet normal 0 0 -1
    outer loop
      vertex 12.5 11.5 0
      vertex 13.5 12.5 0
      vertex 12.5 1 0
    endloop
  endfacet
  facet normal 0 0 -1
    outer loop
      vertex 1 11.5 0
      vertex 13.5 12.5 0
      vertex 12.5 11.5 0
    endloop
  endfacet
  facet normal 0 0 -1
    outer loop
      vertex 1 11.5 0
      vertex 0 12.5 0
      vertex 13.5 12.5 0
    endloop
  endfacet
  facet normal 0 0 -1
    outer loop
      vertex 0 12.5 0
      vertex 1 11.5 0
      vertex 0 0 0
    endloop
  endfacet
  facet normal 0 -1 0
    outer loop
      vertex 0 0 6
      vertex 2 0 3
      vertex 2 0 6
    endloop
  endfacet
  facet normal 0 -1 -0
    outer loop
      vertex 2 0 3
      vertex 0 0 0
      vertex 11.5 0 3
    endloop
  endfacet
  facet normal 0 -1 0
    outer loop
      vertex 0 0 0
      vertex 2 0 3
      vertex 0 0 6
    endloop
  endfacet
  facet normal 0 -1 0
    outer loop
      vertex 11.5 0 3
      vertex 13.5 0 6
      vertex 11.5 0 6
    endloop
  endfacet
  facet normal 0 -1 0
    outer loop
      vertex 11.5 0 3
      vertex 13.5 0 0
      vertex 13.5 0 6
    endloop
  endfacet
  facet normal 0 -1 0
    outer loop
      vertex 13.5 0 0
      vertex 11.5 0 3
      vertex 0 0 0
    endloop
  endfacet
  facet normal 1 -0 0
    outer loop
      vertex 1 10.5 3
      vertex 1 11.5 0
      vertex 1 11.5 3
    endloop
  endfacet
  facet normal 1 -0 0
    outer loop
      vertex 1 2 3
      vertex 1 11.5 0
      vertex 1 10.5 3
    endloop
  endfacet
  facet normal 1 0 0
    outer loop
      vertex 1 1 0
      vertex 1 2 3
      vertex 1 1 3
    endloop
  endfacet
  facet normal 1 0 0
    outer loop
      vertex 1 2 3
      vertex 1 1 0
      vertex 1 11.5 0
    endloop
  endfacet
  facet normal -1 0 0
    outer loop
      vertex 12.5 11.5 0
      vertex 12.5 10.5 3
      vertex 12.5 11.5 3
    endloop
  endfacet
  facet normal -1 0 0
    outer loop
      vertex 12.5 11.5 0
      vertex 12.5 2 3
      vertex 12.5 10.5 3
    endloop
  endfacet
  facet normal -1 0 0
    outer loop
      vertex 12.5 1 0
      vertex 12.5 2 3
      vertex 12.5 11.5 0
    endloop
  endfacet
  facet normal -1 -0 0
    outer loop
      vertex 12.5 2 3
      vertex 12.5 1 0
      vertex 12.5 1 3
    endloop
  endfacet
  facet normal 0 -1 0
    outer loop
      vertex 1 11.5 0
      vertex 2 11.5 3
      vertex 1 11.5 3
    endloop
  endfacet
  facet normal 0 -1 -0
    outer loop
      vertex 2 11.5 3
      vertex 1 11.5 0
      vertex 11.5 11.5 3
    endloop
  endfacet
  facet normal 0 -1 0
    outer loop
      vertex 12.5 11.5 0
      vertex 11.5 11.5 3
      vertex 1 11.5 0
    endloop
  endfacet
  facet normal 0 -1 0
    outer loop
      vertex 11.5 11.5 3
      vertex 12.5 11.5 0
      vertex 12.5 11.5 3
    endloop
  endfacet
  facet normal 0 1 -0
    outer loop
      vertex 12.5 1 0
      vertex 11.5 1 3
      vertex 12.5 1 3
    endloop
  endfacet
  facet normal 0 1 0
    outer loop
      vertex 11.5 1 3
      vertex 12.5 1 0
      vertex 2 1 3
    endloop
  endfacet
  facet normal 0 1 0
    outer loop
      vertex 1 1 0
      vertex 2 1 3
      vertex 12.5 1 0
    endloop
  endfacet
  facet normal 0 1 0
    outer loop
      vertex 2 1 3
      vertex 1 1 0
      vertex 1 1 3
    endloop
  endfacet
  facet normal -0 0 1
    outer loop
      vertex 0 2 6
      vertex 2 0 6
      vertex 2 2 6
    endloop
  endfacet
  facet normal 0 0 1
    outer loop
      vertex 2 0 6
      vertex 0 2 6
      vertex 0 0 6
    endloop
  endfacet
  facet normal 1 0 0
    outer loop
      vertex 2 2 6
      vertex 2 1 3
      vertex 2 2 3
    endloop
  endfacet
  facet normal 1 -0 0
    outer loop
      vertex 2 0 6
      vertex 2 1 3
      vertex 2 2 6
    endloop
  endfacet
  facet normal 1 0 0
    outer loop
      vertex 2 1 3
      vertex 2 0 6
      vertex 2 0 3
    endloop
  endfacet
  facet normal 0 1 0
    outer loop
      vertex 1 2 3
      vertex 2 2 6
      vertex 2 2 3
    endloop
  endfacet
  facet normal 0 1 0
    outer loop
      vertex 2 2 6
      vertex 1 2 3
      vertex 0 2 6
    endloop
  endfacet
  facet normal 0 1 0
    outer loop
      vertex 0 2 6
      vertex 1 2 3
      vertex 0 2 3
    endloop
  endfacet
  facet normal -0 0 1
    outer loop
      vertex 0 12.5 6
      vertex 2 10.5 6
      vertex 2 12.5 6
    endloop
  endfacet
  facet normal 0 0 1
    outer loop
      vertex 2 10.5 6
      vertex 0 12.5 6
      vertex 0 10.5 6
    endloop
  endfacet
  facet normal 1 0 0
    outer loop
      vertex 2 12.5 6
      vertex 2 11.5 3
      vertex 2 12.5 3
    endloop
  endfacet
  facet normal 1 -0 0
    outer loop
      vertex 2 10.5 6
      vertex 2 11.5 3
      vertex 2 12.5 6
    endloop
  endfacet
  facet normal 1 0 0
    outer loop
      vertex 2 11.5 3
      vertex 2 10.5 6
      vertex 2 10.5 3
    endloop
  endfacet
  facet normal 0 -1 0
    outer loop
      vertex 1 10.5 3
      vertex 0 10.5 6
      vertex 0 10.5 3
    endloop
  endfacet
  facet normal 0 -1 0
    outer loop
      vertex 0 10.5 6
      vertex 1 10.5 3
      vertex 2 10.5 6
    endloop
  endfacet
  facet normal 0 -1 -0
    outer loop
      vertex 2 10.5 6
      vertex 1 10.5 3
      vertex 2 10.5 3
    endloop
  endfacet
  facet normal -1 0 0
    outer loop
      vertex 11.5 11.5 3
      vertex 11.5 12.5 6
      vertex 11.5 12.5 3
    endloop
  endfacet
  facet normal -1 0 0
    outer loop
      vertex 11.5 10.5 6
      vertex 11.5 11.5 3
      vertex 11.5 10.5 3
    endloop
  endfacet
  facet normal -1 0 0
    outer loop
      vertex 11.5 11.5 3
      vertex 11.5 10.5 6
      vertex 11.5 12.5 6
    endloop
  endfacet
  facet normal -0 0 1
    outer loop
      vertex 11.5 12.5 6
      vertex 13.5 10.5 6
      vertex 13.5 12.5 6
    endloop
  endfacet
  facet normal 0 0 1
    outer loop
      vertex 13.5 10.5 6
      vertex 11.5 12.5 6
      vertex 11.5 10.5 6
    endloop
  endfacet
  facet normal 0 -1 0
    outer loop
      vertex 12.5 10.5 3
      vertex 11.5 10.5 6
      vertex 11.5 10.5 3
    endloop
  endfacet
  facet normal 0 -1 0
    outer loop
      vertex 11.5 10.5 6
      vertex 12.5 10.5 3
      vertex 13.5 10.5 6
    endloop
  endfacet
  facet normal 0 -1 -0
    outer loop
      vertex 13.5 10.5 6
      vertex 12.5 10.5 3
      vertex 13.5 10.5 3
    endloop
  endfacet
  facet normal -1 0 0
    outer loop
      vertex 11.5 1 3
      vertex 11.5 2 6
      vertex 11.5 2 3
    endloop
  endfacet
  facet normal -1 0 0
    outer loop
      vertex 11.5 0 6
      vertex 11.5 1 3
      vertex 11.5 0 3
    endloop
  endfacet
  facet normal -1 0 0
    outer loop
      vertex 11.5 1 3
      vertex 11.5 0 6
      vertex 11.5 2 6
    endloop
  endfacet
  facet normal -0 0 1
    outer loop
      vertex 11.5 2 6
      vertex 13.5 0 6
      vertex 13.5 2 6
    endloop
  endfacet
  facet normal 0 0 1
    outer loop
      vertex 13.5 0 6
      vertex 11.5 2 6
      vertex 11.5 0 6
    endloop
  endfacet
  facet normal 0 1 0
    outer loop
      vertex 12.5 2 3
      vertex 13.5 2 6
      vertex 13.5 2 3
    endloop
  endfacet
  facet normal 0 1 0
    outer loop
      vertex 13.5 2 6
      vertex 12.5 2 3
      vertex 11.5 2 6
    endloop
  endfacet
  facet normal 0 1 0
    outer loop
      vertex 11.5 2 6
      vertex 12.5 2 3
      vertex 11.5 2 3
    endloop
  endfacet
endsolid OpenSCAD_Model
