solid OpenSCAD_Model
  facet normal -1 0 0
    outer loop
      vertex 0 9 0
      vertex 0 6 31
      vertex 0 9 37.75
    endloop
  endfacet
  facet normal -1 0 0
    outer loop
      vertex 0 9 0
      vertex 0 -6 31
      vertex 0 6 31
    endloop
  endfacet
  facet normal -1 0 0
    outer loop
      vertex 0 -9 0
      vertex 0 -6 31
      vertex 0 9 0
    endloop
  endfacet
  facet normal -1 0 0
    outer loop
      vertex 0 -9 37.75
      vertex 0 -6 31
      vertex 0 -9 0
    endloop
  endfacet
  facet normal -1 0 0
    outer loop
      vertex 0 -6 31
      vertex 0 -9 37.75
      vertex 0 -6 37.75
    endloop
  endfacet
  facet normal -1 -0 0
    outer loop
      vertex 0 9 37.75
      vertex 0 6 31
      vertex 0 6 37.75
    endloop
  endfacet
  facet normal -0 0 1
    outer loop
      vertex 0 -6 37.75
      vertex 6 -9 37.75
      vertex 6 -6 37.75
    endloop
  endfacet
  facet normal 0 0 1
    outer loop
      vertex 6 -9 37.75
      vertex 0 -6 37.75
      vertex 0 -9 37.75
    endloop
  endfacet
  facet normal 1 0 0
    outer loop
      vertex 6 -6 37.75
      vertex 6 -9 37.75
      vertex 6 -6 31
    endloop
  endfacet
  facet normal 1 0 0
    outer loop
      vertex 6 6 31
      vertex 6 9 37.75
      vertex 6 6 37.75
    endloop
  endfacet
  facet normal 1 0 0
    outer loop
      vertex 6 9 37.75
      vertex 6 6 31
      vertex 6 9 0
    endloop
  endfacet
  facet normal 1 -0 0
    outer loop
      vertex 6 -6 31
      vertex 6 9 0
      vertex 6 6 31
    endloop
  endfacet
  facet normal 1 0 0
    outer loop
      vertex 6 -6 31
      vertex 6 -9 0
      vertex 6 9 0
    endloop
  endfacet
  facet normal 1 0 0
    outer loop
      vertex 6 -9 0
      vertex 6 -6 31
      vertex 6 -9 37.75
    endloop
  endfacet
  facet normal 0 1 -0
    outer loop
      vertex 6 -6 31
      vertex 0 -6 37.75
      vertex 6 -6 37.75
    endloop
  endfacet
  facet normal 0 1 0
    outer loop
      vertex 0 -6 37.75
      vertex 6 -6 31
      vertex 0 -6 31
    endloop
  endfacet
  facet normal 0 -1 0
    outer loop
      vertex 0 -9 0
      vertex 6 -9 37.75
      vertex 0 -9 37.75
    endloop
  endfacet
  facet normal 0 -1 -0
    outer loop
      vertex 6 -9 37.75
      vertex 0 -9 0
      vertex 6 -9 0
    endloop
  endfacet
  facet normal -0 0 1
    outer loop
      vertex 0 6 31
      vertex 6 -6 31
      vertex 6 6 31
    endloop
  endfacet
  facet normal 0 0 1
    outer loop
      vertex 6 -6 31
      vertex 0 6 31
      vertex 0 -6 31
    endloop
  endfacet
  facet normal 0 -1 0
    outer loop
      vertex 0 6 31
      vertex 6 6 37.75
      vertex 0 6 37.75
    endloop
  endfacet
  facet normal 0 -1 -0
    outer loop
      vertex 6 6 37.75
      vertex 0 6 31
      vertex 6 6 31
    endloop
  endfacet
  facet normal -0 0 1
    outer loop
      vertex 0 9 37.75
      vertex 6 6 37.75
      vertex 6 9 37.75
    endloop
  endfacet
  facet normal 0 0 1
    outer loop
      vertex 6 6 37.75
      vertex 0 9 37.75
      vertex 0 6 37.75
    endloop
  endfacet
  facet normal 0 1 -0
    outer loop
      vertex 6 9 0
      vertex 0 9 37.75
      vertex 6 9 37.75
    endloop
  endfacet
  facet normal 0 1 0
    outer loop
      vertex 0 9 37.75
      vertex 6 9 0
      vertex 0 9 0
    endloop
  endfacet
  facet normal 0 0 -1
    outer loop
      vertex 0 -9 0
      vertex 6 9 0
      vertex 6 -9 0
    endloop
  endfacet
  facet normal -0 0 -1
    outer loop
      vertex 6 9 0
      vertex 0 -9 0
      vertex 0 9 0
    endloop
  endfacet
endsolid OpenSCAD_Model
